<?xml version="1.0" encoding="UTF-8"?>
<svg xmlns="http://www.w3.org/2000/svg" viewBox="0 0 961.91 1332.01">
  <defs>
    <style>
      .cls-1, .cls-2 {
        fill: red;
      }

      .cls-2 {
        font-family: Noteworthy-Bold, Noteworthy;
        font-size: 45px;
        font-weight: 700;
      }
    </style>
  </defs>
  <g id="Calque_1" data-name="Calque 1">
    <g>
      <path d="m290.1,166.21c6.7,4.9,11.5,12.2,21.6,32.6,5.2,10.4,11.2,21.3,13.5,24.3,6.8,9.1,8.8,15,12.4,37.4,4.7,28.9,11.4,49.1,25.9,78.5,13.6,27.4,16.4,34.7,19.2,48.8,2.1,10.9,3.1,13.7,9.6,26.2,4,7.7,10.5,22.1,14.4,32.1,5.9,14.8,7.4,19.5,8,26,.6,7.1,1.1,8.5,4.9,13.9,2.7,3.8,5.8,10.4,8.6,18,7.6,21.6,13,28.9,23.4,32,6.7,2,8.4,1.9,15-1,8.3-3.7,19.8-6.4,31.6-7.6,11.4-1.1,14.4-.8,29.1,3.2,7.2,1.9,9.1,2.1,11.3,1.1,1.4-.6,2.6-1.8,2.6-2.6,0-2.8-6.1-7.6-11.8-9.2-5.8-1.7-10.5-1.7-39.8.2l-10.1.7,1.4-6.9c2.3-11.3,2.8-49.9.9-78.4-4.5-66.4-4-74.3,9-143.8,4.1-22.2,5.1-36.3,6.4-93.2,1.2-53.8,3.4-74.6,9.6-93.7,5.4-16.7,13.4-29,22.8-35.1.34-.23.66-.43.98-.63-3.17-2.39-6.14-5.79-8.54-9.48-5.58,4.26-11.25,10.65-17.74,19.9-3.7,5.2-7,9.9-7.3,10.5-.8,1.4-5.5,38.7-7.3,58.5-.8,9.1-3.1,37-5,62-5.4,69.7-7.2,86.1-13,117-6.5,34.9-6.7,46.4-1.4,100,1.6,17.1,2,25.6,1.6,41.5-.6,20.9-1.5,26.9-6.3,41.4-2.8,8.5-3.4,9.1-10.6,9.1-7.8,0-9-2.3-35.8-67.5-4.6-11-10.9-26.3-14.1-34-3.1-7.7-9.4-25.7-13.9-40-8.4-26.9-12-35.7-20.8-50.9-7.8-13.5-10.9-23.6-19.3-63.6-9.2-44-14.2-57.4-29.1-79-4.6-6.6-10.3-15.2-12.8-19-4.16-6.52-4.66-7.15-11.71-10.07-4.02,3.14-7.96,6.19-11.92,8.17,1.49.45,2.67,1.23,4.53,2.6Z"/>
      <path d="m652.9,808.41c-3.2-3.1-7.9-4.8-14.8-5.6-5.5-.5-6.7-1.1-13.2-6.4-7.9-6.4-16.8-11.2-23.7-12.8-2.5-.5-4.9-1.8-5.5-2.8-2.6-4.8-13-13.5-23.5-19.7-15.5-9.3-16.9-10.5-25.1-20.8-3.9-4.9-9-10.1-11.3-11.7-3.9-2.6-27-14.9-43.7-23.1-11.8-5.9-35.2-13.6-59.7-19.6l-22.4-5.5-2.2,2c-3.3,3.1-7.5,4.3-15.2,4.3l-7.1-.1-6.6,6.8c-3.6,3.7-8.3,7.6-10.4,8.6-4.1,2-12.8,3.1-16.6,2.1l-2.4-.6-1.3-26.7c-1.5-32.3-.9-64.9,1.5-78.3,5.6-30.5.3-53.7-26.7-116.9-13.9-32.7-15.8-38.1-15.8-46.4,0-7.1-.3-8-6.4-20.5-8-16.1-8.9-19.2-12.1-40-4.5-30.3-7-41.6-18-83.7-13-50.1-17.5-74.2-17.5-94.3,0-17.5,3.5-26.6,12.1-31.7,1.15-.68,2.26-1.14,3.68-1.45-4.9-2.2-9.58-5.06-14.31-8.1-2.83,3.25-5.64,7.78-8.97,14.05-3.2,6-7.5,12.8-9.5,15-3.5,3.8-3.7,4.4-2.9,7.3,2.1,7.2,5,27.6,7.4,51.7,3.9,39.7,5.5,46.8,17.5,77.5,11.8,30.4,12.5,33.1,16.4,68.6,2.7,23.6,9.9,47.6,29.1,96.4,13.7,34.6,19.9,51.3,24.2,65.1l3.4,11.1-2.5,6.1c-1.4,3.4-2.6,6.5-2.6,6.9,0,.5,2,1.8,4.4,3.1,6.8,3.6,6.8,3.9,5.4,33.6-1.8,38.5-1.6,73,.5,83.8,1,4.7,2.4,10.5,3.2,12.8,1.4,4,1.4,4.3-.9,7.3-4.2,5.7-9.4,16.1-12.1,24.1-2.4,7-2.5,8.2-1.3,11,3,7,1.2,19.9-5,35.8l-2.6,6.8h-5.6c-3,0-9.2-1-13.6-2.3l-8.1-2.2-29.4-30.4c-36.3-37.4-43.6-45.9-59.6-68.6-21.6-30.7-26.5-35.8-48.8-50.6-13.3-8.7-23.6-14.4-29-15.8-2.2-.5-9.8-1.7-17-2.6-16.2-1.9-21.4-3-28.8-6.3l-5.8-2.5-12.2,1.7c-39.2,5.6-56,17-59.2,40.3l-.7,5.1,7.4,5.2c4,2.9,17,10.9,28.8,18,11.8,7,24.4,14.9,27.9,17.5,13.9,10.3,22.8,20.4,28.7,32.8l3.5,7.4,10.7,5.8c19.4,10.5,21.7,12.5,28.1,25,3.8,7.5,5.7,9.8,15.3,18.8,7.4,6.8,12.9,13,16.7,18.7,12.1,18.1,14.7,24.4,19.2,45.7,3.2,15.4,5.4,21,12.4,30.8,4.2,5.9,20.3,21.9,36.6,36.5,11,9.8,21.1,21,23.8,26.3,1.2,2.3,4.3,9.5,7.1,16,5.8,13.9,11.5,24.2,28.7,51.9,7,11.3,15.1,24.6,17.8,29.4,3.8,6.6,8.9,12.9,21,25.8,17.2,18.4,21.4,24.1,24.5,33,3.2,9.3,7.2,30.4,7.7,40.6.6,10.4-.4,14.3-9.5,38-6.6,17.2-7.3,22.2-7.1,53.3.2,30.3,0,32.5-6.7,63.7-2.5,11.3-4.7,23.2-5,26.5l-.6,6,2.3-3.5c3.3-5.3,9.3-17.8,11.7-24.5,7.7-21.9,9.3-32.7,9.2-61.8,0-26.8.2-28.8,7.6-51,2.6-7.6,5.3-16.4,6-19.5,3-11.9,2.9-41.4-.3-61.5l-.6-3.7,4.7,2c6.6,2.8,15.6,5,20.6,5s10.6-2.4,12-5.1c.9-1.6.5-1.9-2.7-2.5-6.6-1.2-17.3-5.2-23.9-8.9-9.2-5.2-19.2-13.4-37.1-30.7l-15.8-15.1-8.4-15.1c-24.3-43.9-36.2-64.7-60.3-105.4l-15-25.2h-5.6c-5.5,0-5.7-.1-11-5.8-7.1-7.5-17.8-21.9-23.1-30.9-7.8-13.4-15.4-34-18.2-49.3-.9-5.1-2-7.4-4.8-10.5-2-2.2-6.1-8.2-9-13.3-4.4-7.4-7.7-11.4-16.8-20.1-13.2-12.7-15.2-16.3-15.3-26.4,0-6-.2-6.7-2-6.7-1.5,0-2.2,1.1-3.1,4.5-1.6,6.5-3.8,7.3-8,2.9-1.8-1.9-5-3.9-7-4.6l-3.7-1,3.1-7.3c3.2-7.7,3.2-10.5-.1-14.5-2.7-3.3-5.4-1.9-7.9,4-3.2,7.6-8.1,8.1-12,1.3-1.1-2.1-5.9-8.6-10.5-14.4-4.6-5.8-9.4-12.6-10.5-15.1-1.8-3.6-3-4.8-6.6-6.2-2.6-1-8.9-5.5-14.8-10.7-7.8-6.8-12.7-10.1-19.9-13.5-21.4-10.3-22.1-10.6-23.5-13.5-.8-1.5-1.5-4.7-1.5-7,0-3.8.5-4.8,5-9.1l5.1-4.9,8.7.7c10.6.7,25-.8,35.7-3.8,19.5-5.5,38.9-.5,69.3,17.9,28.4,17.2,37.5,24.3,39.6,31,.4,1.1,1.7,2.4,3,2.7,1.8.4,3,2.3,5.1,7.3,7,17.3,8.2,19,22.4,33.3,7.5,7.4,19.9,19.6,27.6,27,7.7,7.4,22.4,22.3,32.7,33.1,10.2,10.7,21.2,21.3,24.3,23.5,5.7,3.9,5.8,3.9,15.4,3.9,13.1,0,16.7-1.9,36.8-19.4,16.7-14.6,22.6-21.6,24.2-28.9.9-4.1.8-4.2-1.7-4.2-2,0-5.2,2.7-13.6,11.4-8.1,8.3-12.1,11.7-14.9,12.6-2.1.7-4.1,1-4.3.7-.3-.3.2-2.8,1-5.7.9-2.9,2.9-13.4,4.6-23.4,3.2-19.6,5.4-27.4,9.7-34.2l2.8-4.4h6.5c9.3-.1,13.3-1.3,18.2-5.5,2.4-2,9.7-6.3,16.3-9.4l12-5.8,13.5.4c17.7.5,19.4.8,23.6,4.5,3.4,3,4,3.1,10.9,3,7.9-.2,5.8-1,37,13.8,11,5.2,31.1,18.2,42,27,3.9,3.1,11.5,8.7,17.1,12.3,8.3,5.5,10.4,7.4,12,10.9,1.7,3.9,2.6,4.6,9.2,7.2,5.6,2.2,8.1,3.9,10.5,6.9,6.8,8.5,9.1,10.4,15.2,12.1,3.3,1,12.5,5.2,20.5,9.5,8,4.3,17.4,9,21,10.4,7.1,2.8,16,5.1,16.8,4.3.9-1-.9-5.6-3.1-7.7Z"/>
      <path d="m716.09,113.66c-2.54,1.34-5.17,2.67-6.99,3.56l-5.6,2.8-1.3,8.5c-.7,4.7-4.3,20.8-8.1,35.8-6.7,26.4-8.6,36.4-16.4,88.2-6.3,41.1-10.8,57.4-25.8,92.7-15.6,36.6-18.1,46.8-24.7,102.3-4.5,37.3-9.3,60.5-13.2,63-1.3.8-4.3,3.3-6.8,5.6-4.5,4.1-8,6.4-9.8,6.4-1.5,0-6.9-18.1-8.9-29.5-1.6-8.8-1.7-16.1-1.5-63,.3-56.7-.3-68.9-4.4-93.5-3.6-21.3-3.8-26-2-40.5,3.5-29,4.7-48.2,5.7-98,2.12-102.03-.77-122.59-22.51-138.42-3.75,3.13-7.45,6.21-11.28,8.58,1.24.44,2.54,1.03,4.19,1.84,5.2,2.6,6.4,3.8,9.2,9,7.1,13.3,6.8,8.7,7.1,112,.3,89.9-.2,116.5-2.9,142.2-1,9.1-.8,11,1,18.5,4.6,18.9,5.1,31.7,4.1,109.3-.3,30.7-.2,37.5,1.3,46,.9,5.5,2,11.2,2.4,12.6.5,1.5,5,6.4,10.5,11.3l9.7,8.6,8.5,1.5c4.6.8,13.3,3.2,19.3,5.4,31.1,11.2,36.1,12.9,40.1,13.6l4.4.7-1.5-2.8c-3.8-7.4-8.2-9.4-50.4-23.7-6.8-2.3-12.3-4.4-12.3-4.7s2.4-.3,5.4-.2l5.3.4,3.1-7.4c7.1-17.2,11.7-37.6,15.7-69.8,5.5-44.8,7.4-53.1,19-82,4-10.2,7.9-21,8.5-24,.7-3,5-17.2,9.7-31.5,12.7-39.2,14.2-46,23.3-109,5.6-38.6,9.4-57.1,12.6-60.8,1.4-1.7,3.7-5.3,5.1-8.1,3.5-7,6.9-11.3,10.3-13.1.61-.32,1.38-.58,2.23-.8-4.21-2.56-8.14-5.73-11.34-9.56Z"/>
      <path d="m933.8,325.49c-4.59,2.32-9.18,4.16-13.42,4.82,6.85,13.03,10.44,29.27,9.33,43.2-2.2,28.1-15.9,67.3-29.4,84-7.6,9.4-9.4,12.8-15.1,29.5-5.8,17-7.6,20.4-17,33-10.6,14.4-10.9,15-26.1,56-2.9,8-10.9,25.3-18.6,40.5-7.5,14.6-13.7,26.7-13.8,26.9-.4.3-34.8-29.6-48-41.7-7.5-6.9-7.8-7.8-4.7-13.7.8-1.7,3.7-5.5,6.4-8.5,6.5-7.2,10.5-15.7,18.4-39.1,8.4-25,13.4-35.3,21.9-44.9,3.7-4.1,9.7-11.8,13.5-17,3.7-5.3,10.5-13.6,15-18.5,17.1-18.8,23-30.6,43.7-88.5,9.6-26.8,13.1-34.8,18.6-43,3.62-5.39,5.41-7.22,9.42-7.78-1.51-3.46-2.93-7.41-4.5-11.45-1.4.59-2.74,1.32-4.01,2.22-2.6,1.9-6.6,4.7-9,6.3s-4.5,3.5-4.7,4.1c-21.7,64.4-34.2,93.2-52.7,120.6-29.1,43.3-29.4,43.6-38.4,50.3l-8.3,6.2-3.5,10.5c-1.9,5.8-5.5,17.1-8,25.1-7.8,25.1-17.4,40.6-29.3,47.5l-4.3,2.6-4.3-2.2c-13.3-6.9-15.4-16.5-9.7-44.1,1.6-7.9,4.3-22.8,5.9-33,1.7-10.2,4.4-24.6,6-32,5.1-23,17.1-94.7,22.1-131.8,3.6-27.2,5-34.8,10-55.6,11.9-49.6,15.1-76.2,12.9-107-1.95-27.22-5.95-39.82-18.55-53.48-3.74,2.17-7.57,3.82-11.29,4.52,12.37,12.23,20.94,36.08,20.94,60.76,0,13.1-.8,19.3-5.1,41.2-1.8,8.7-3.4,21-3.9,29.4-.9,14.3-1,14.6-5.1,22.5-10.4,19.9-9.3,15.1-9.4,40.5l-.2,22.6-5.7,22.5c-5.7,22.4-5.8,22.6-6.6,42.5-1,25.5-3,36.6-15.4,86-7.3,29.5-10.1,43.4-11.6,58.4-1.4,14.8-1.5,14.3,4,20.8,2.8,3.2,5.8,7.5,6.7,9.6l1.8,3.9,5.2-.7,5.3-.6,7.3,6.4c3.9,3.5,15.2,12.4,25,19.8,9.9,7.4,18.4,13.8,19.1,14.4.7.5,1.6,3.2,1.9,5.8.9,6.1,2.2,8.6,5.4,9.8s3.9.6,2.5-2.5c-1.1-2.5-.7-3.6,1.3-3.6,1.6,0,7.9,13.7,10.8,23.5,4.2,13.8,5.2,21.9,5.1,41-.1,20.8-1,27.8-9.4,71-6.4,32.8-8.1,43.4-10.5,66-3.4,31.9-12,85.5-18,112.5-4.8,21.5-8.9,35-17.4,56.8-10.6,27.2-13,36.6-19.1,76.7-2.3,15.3-6.3,34.4-8.7,41.5-.8,2.5-4.6,13.3-8.3,24.1-8.7,24.7-9.9,31-11,54.4-.5,10.4-1.4,28-2.1,39-1.1,19-.8,56.9.5,58.2.9.9,5.6-3.8,6.8-6.7.6-1.4,1.4-9.5,1.9-18,.5-9.5,1.6-19.6,3-26,2.1-9.5,2.3-13.6,2.5-41.5.3-36.5.3-36.6,11.8-65.4,4.1-10.2,8.3-21.6,9.5-25.3,2.7-9.1,7.8-40.4,9.1-56.4,1.6-20.2,2.4-22.4,14.4-43.3,8.6-15,13.2-29.2,18.5-57.1,20.7-108.7,20.2-105.1,21.1-140.5l.8-30,4.1-14c7.8-26.6,11.2-56,11.7-100.6l.3-31.6,8.9-17.9c4.9-9.9,16.5-34.1,25.7-53.9,18.2-39.2,30.7-65.6,45-95.1,7.3-14.9,10.4-20.3,14.7-25,4.1-4.5,5.7-7.2,6.7-11.2.7-3,3.8-11.1,6.7-18,7.4-17.2,10.3-26.8,12-39.2,3.28-24.72.53-47.44-7-62.02Z"/>
      <path d="m448.4,540.91c-1.8,4.8-1.6,5.1,4.1,8.9,6.6,4.3,13.6,6.9,29,10.7,12.7,3.2,23.6,7.6,27.5,11.2l2.2,2.1v-3.5c0-8.9-8.7-14.6-30.9-20.3-16.4-4.2-23.3-6.7-27.7-10l-3.1-2.3-1.1,3.2Z"/>
      <path d="m487.5,651.11c-1.6.7-1.7,3.8-.3,6.4,1,1.9,7.7,3.6,42,11,19.9,4.3,30.7,8.1,42.9,15,7.7,4.3,12.8,6.5,19.1,8,13.1,3,16.1,4.3,32,13.5,19.7,11.4,23.7,13.1,39.2,16.5,17,3.8,18.4,4.3,42.3,15.8,17.3,8.3,20.6,10.2,24.4,14.4,6.3,7.1,27.1,21.1,28.7,19.5.4-.3-.5-3-1.8-5.9-4.2-9.2-10.6-14.4-33.9-28.1-5.2-3.1-11.8-7.6-14.5-10-4-3.6-6.3-4.7-12.9-6.4-4.4-1.1-16.2-4.6-26.1-7.7-10-3.1-22-6.5-26.7-7.5-4.8-1-9.7-2.7-11-3.7-1.4-1.1-5.1-4-8.3-6.5-10.2-7.8-13-9.2-17.7-8.6-4.8.7-5.5.3-8-3.6-1.5-2.3-2.4-2.7-6.1-2.7-5.4,0-11.8-2.2-27.6-9.5-20.2-9.3-27.9-11.7-40-12.2-8.1-.4-11-.9-12.5-2.3-3.9-3.4-9-5.3-15.5-5.6-3.6-.2-7.1-.1-7.7.2Z"/>
      <path d="m438.6,728.51c-4.2,1.7-3.5,2.9,3,5.9,25.8,11.7,48.9,40,60.2,73.6,2.8,8.3,3.4,11.8,3.4,18.4s.5,9.3,3.1,15.4c3.4,8,4.8,19.1,4.9,37.6,0,10.7-1.6,23.1-3,23.1-.4,0-1.1-1-1.6-2.3-.5-1.4-.9,1.3-1.1,8.3-.3,8.5,0,11.6,1.6,16,1.6,4.7,2,9.3,2.5,31,.3,14,1,33.4,1.5,43,.7,10.8.8,24.2.2,35-1,21.6-1.8,23.9-12.5,34.5-4.2,4.2-7.6,8-7.6,8.5,0,1.9,8.4,1,12.2-1.3,6.1-3.7,9.9-9.9,13.7-22.1,5.3-17.3,6.4-37.4,3.4-65.7-1.5-13.3-1.7-22.7-1.4-50.4.9-69.6.8-75.9-1.7-88-1.5-7.2-2.2-13.8-2.1-19,.2-7-.1-8.7-2.6-13.5-1.5-3-6.3-14.5-10.5-25.5-12.2-31.6-13-33.3-16.7-34.5-3-1.1-6.4-4.3-16.6-16.4-5.5-6.4-9.9-9-18.9-11.1-7.1-1.7-10.3-1.8-13.4-.5Z"/>
      <path d="m557.7,1121.51c-2.7.4-12.2,1.3-21,2-8.8.6-23.6,2.2-33,3.5-27.4,3.8-39.9,4.8-54.9,4.3-12.5-.5-14.9-.9-20.7-3.3-6.8-2.8-11.9-2.9-11.9-.2,0,2.3,7.4,8.6,12,10.3,8.7,3.2,60.4,1.4,93.7-3.2,17.6-2.4,20.9-2.6,25-1.6,5.3,1.4,10.1.8,23.3-2.9,10-2.9,17.4-2.7,30.5.7,10.6,2.7,12,2.8,40.4,3.2,28,.3,29.4.2,31.5-1.6,1.1-1.1,3.1-2.3,4.3-2.6,2.6-.8,7.3-4.4,7.3-5.7,0-1.6-7.8-1-13.2,1.1-10.6,4.1-25.4,3.7-59.3-1.7-17.2-2.7-44.8-3.9-54-2.3Z"/>
      <path d="m386.2,1129.71c.1,3.2,4.1,9.6,8.4,13.6,9.5,8.7,25.5,14,45.3,14.9,13.1.6,19.1-.6,22.7-4.6,1.6-1.7,1.3-1.8-7.1-2.5-25.7-2-49.8-9.3-64.8-19.6-2.7-1.9-4.5-2.6-4.5-1.8Z"/>
      <path d="m597.7,1159.01c-1.4,1.3-2.5,3.1-2.5,3.9,0,1.8,7.8,3.6,15.6,3.6,5.2,0,11.4-2.1,11.4-3.9,0-1-16.6-6.1-19.8-6.1-1.3,0-3.4,1.1-4.7,2.5Z"/>
      <path d="m505.4,1168.01c-6.9,2.1-10.5,6.4-6.6,7.9,2.7,1,6.3.7,14.4-1.4,4.3-1.1,10.2-1.9,13-1.8,4.8.2,6.9-.8,7-3.4,0-2.7-20.3-3.7-27.8-1.3Z"/>
      <path d="m592.7,1173.31c-6.2.9-6.6,1.2-5.5,3.3,1.8,3.3,5.3,4,10.9,2.2,4.6-1.4,5.3-1.4,9.1.1,5.3,2.1,9.3,2,11.4-.3,1.6-1.8,1.4-1.9-4.6-3.1-7.4-1.5-18.5-2.7-21.3-2.2Z"/>
      <path d="m509.2,1179.21c-3,.6-6,3.1-6,5,0,1.2,1.5,1.3,8.3.8,9.3-.8,14-1.9,15.7-4.1,1.1-1.2.6-1.4-2.7-1.4-2.2,0-6-.2-8.4-.4s-5.5-.2-6.9.1Z"/>
      <path d="m597.7,1183.21c-4.2.9-7.6,2.6-8.5,4.4-.9,1.7-.2,1.8,13,1.6,13.9-.1,14-.1,12.6-2.1-2.3-3.5-10.4-5.4-17.1-3.9Z"/>
      <path d="m503.4,1195.11c-2.8,1.4-5.3,5.7-4.1,6.9.6.6,24.1-2.5,25.7-3.4,2.6-1.5-4.6-4.4-11.8-4.8-4.7-.3-7.4.1-9.8,1.3Z"/>
      <path d="m594,1200.21c-5.1,3.2-4,3.8,6.8,3.8,5.7,0,10.4-.2,10.4-.6,0-.3-.9-1.4-2-2.4-2.9-2.6-11.7-3.1-15.2-.8Z"/>
      <path d="m504.5,1214.21c-2,.8-1.5,3.8,1,6.1,3.3,3.1,8.3,3.9,10.7,1.7,1.9-1.7,1.8-1.8-3-5.1s-6.2-3.8-8.7-2.7Z"/>
      <path d="m592.2,1219.01c0,4.4,4.3,8.5,9,8.5,2.9,0,2.6-4.5-.5-7.5-2.7-2.8-8.5-3.5-8.5-1Z"/>
    </g>
  </g>
  <g id="Calque_3" data-name="Calque 3">
    <text class="cls-2" transform="translate(798.47 597.57)"><tspan x="0" y="0">1</tspan></text>
    <text class="cls-2" transform="translate(843.11 508.09)"><tspan x="0" y="0">2</tspan></text>
    <text class="cls-2" transform="translate(880.91 420.55)"><tspan x="0" y="0">3</tspan></text>
    <text class="cls-2" transform="translate(922.42 310.15)"><tspan x="0" y="0">4</tspan></text>
    <text class="cls-2" transform="translate(660.88 519.99)"><tspan x="0" y="0">5</tspan></text>
    <text class="cls-2" transform="translate(693.55 369.08)"><tspan x="0" y="0">6</tspan></text>
    <text class="cls-2" transform="translate(712.3 258.64)"><tspan x="0" y="0">7</tspan></text>
    <text class="cls-2" transform="translate(740.77 98.65)"><tspan x="0" y="0">8</tspan></text>
    <text class="cls-2" transform="translate(525.65 489.43)"><tspan x="0" y="0">9</tspan></text>
    <text class="cls-2" transform="translate(518.82 335.1)"><tspan x="0" y="0">10</tspan></text>
    <text class="cls-2" transform="translate(528.85 210.51)"><tspan x="0" y="0">11</tspan></text>
    <text class="cls-2" transform="translate(528.66 42.02)"><tspan x="0" y="0">12</tspan></text>
    <text class="cls-2" transform="translate(352.82 534.2)"><tspan x="0" y="0">13</tspan></text>
    <text class="cls-2" transform="translate(301.34 396.03)"><tspan x="0" y="0">14</tspan></text>
    <text class="cls-2" transform="translate(273.13 281.44)"><tspan x="0" y="0">15</tspan></text>
    <text class="cls-2" transform="translate(230.43 130.05)"><tspan x="0" y="0">16</tspan></text>
    <g>
      <path class="cls-1" d="m756.3,120.21c-14.2-13.6-23.1-15.9-35.3-9.2-1.4.78-3.13,1.71-4.91,2.64,3.2,3.83,7.13,7,11.34,9.56,4.48-1.12,11.68-.78,14.87.9,2.79,1.44,5.45,3.45,7.96,5.94,3.72-.7,7.55-2.35,11.29-4.52-1.61-1.75-3.35-3.51-5.25-5.32Z"/>
      <path class="cls-1" d="m277.2,163.01c4.36,0,6.58.06,8.37.6,3.96-1.99,7.9-5.04,11.92-8.17-.41-.17-.83-.34-1.29-.53-16.8-6.9-19.1-7.6-25.5-7.1-6.86.49-11.46,2.4-16.03,7.65,4.72,3.04,9.41,5.9,14.31,8.1,1.91-.42,4.37-.55,8.22-.55Z"/>
      <path class="cls-1" d="m561.1,57.71c-7-4.7-17.6-6.4-26.5-4.3-4.34,1.06-8.43,3.05-12.56,6.2,2.4,3.69,5.37,7.09,8.54,9.48,2.96-1.82,4.84-2.07,11.62-2.07,5.16,0,7.58.19,10.31,1.16,3.83-2.37,7.53-5.45,11.28-8.58-.87-.63-1.76-1.26-2.69-1.88Z"/>
      <path class="cls-1" d="m908.2,320.51h6.5l3.9,6.6c.62,1.04,1.2,2.11,1.77,3.2,4.25-.66,8.83-2.51,13.42-4.82-2.13-4.12-4.63-7.59-7.5-10.28-7.9-7.39-18.38-9.52-26.89-5.92,1.58,4.03,3,7.99,4.5,11.45,1.2-.17,2.58-.22,4.28-.22Z"/>
      <path class="cls-1" d="m868.4,427.01c-2,4.3-1.5,8.3,1.1,9.1,1.2.3,4.8,2.6,8,5,6.5,4.9,10.7,5.8,10.7,2.3s-3.3-7.9-8.5-11.1c-2.7-1.7-6.2-4.2-7.6-5.5l-2.6-2.3-1.1,2.5Z"/>
      <path class="cls-1" d="m817.2,506.31c0,1.3,11.7,12.2,19,17.7,3.6,2.6,8,6.2,9.7,7.8,3.8,3.6,4.7,3.2,3.8-1.7-1-5.2-5.8-12-11.2-16-6.2-4.6-21.3-10.1-21.3-7.8Z"/>
      <path class="cls-1" d="m770.2,593.91c0,3.8,7.1,10.9,15.6,15.7,3,1.7,5.4,3.6,5.4,4.3,0,1.4,4.6,5.8,10.4,10.1l3.9,2.8-.7-4.9c-1.4-10.2-9.2-18.1-24.3-24.4-10.2-4.3-10.3-4.3-10.3-3.6Z"/>
      <path class="cls-1" d="m515.7,220.91l-8,1.1-.3,3.2-.3,3.3h14.5c16.5,0,27.8,1.3,35,4.1,2.7,1,5.2,1.6,5.5,1.3,1.3-1.2-3.7-8-7.3-10.1-7.6-4.2-22.3-5.3-39.1-2.9Z"/>
      <path class="cls-1" d="m701.9,267.31c.9,3.4,6.6,8.1,12.6,10.1,6.5,2.3,21.4,4.8,22.3,3.8.4-.4-.5-2.2-1.9-4-3-4-9.5-6.8-21.2-9.2-4.4-1-9-1.9-10.2-2.2-1.8-.4-2.1-.1-1.6,1.5Z"/>
      <path class="cls-1" d="m321.2,291.51c0,1.7-5.5,3.9-12.6,5-3.8.6-9.2,1.8-12,2.6-5.1,1.4-9.4,4.7-8,6.2.4.4,4.9.7,9.9.7,6.8-.1,11-.7,16.2-2.4,7.9-2.6,16.5-6.9,21-10.6l3-2.4-8.7-.1c-5.1,0-8.8.4-8.8,1Z"/>
      <path class="cls-1" d="m520.3,350.91c-5.3.6-9.6,1.6-9.8,2.2-.6,1.9,4.5,5.3,9.1,5.9,2.3.4,9.4-.1,15.9-1,9-1.3,12.4-1.5,14.8-.6,5.5,1.9,8.4-2.6,3.2-4.8-7.8-3.1-17.2-3.6-33.2-1.7Z"/>
      <path class="cls-1" d="m507.2,363.61c-2.5.5-7.1,1.2-10.3,1.5-5,.6-5.5.9-4.5,2.2.7.8,3.3,2.5,5.8,3.6,4,1.8,7.1,2.1,28.5,2.7,13.2.3,24.9.9,25.9,1.4,2,.9,2,.8,0-2.5-2.4-4.2-9-7.7-16.9-9-7.1-1.2-22.1-1.1-28.5.1Z"/>
      <path class="cls-1" d="m678.2,374.41c0,4,1.9,5.7,8,7.1,8.3,1.9,19.7,6.5,27,10.9,3.6,2.2,6.7,3.8,6.8,3.6,1-.9-1.3-6.9-3.5-9.6-3.6-4.2-8.7-6.6-20.9-9.4-5.8-1.4-12.1-3.2-14-4q-3.4-1.4-3.4,1.4Z"/>
      <path class="cls-1" d="m665.2,388.51c0,3.5.3,4,2.8,4.6,1.5.3,5.8,1.6,9.5,3,3.7,1.3,9.4,2.7,12.5,3,3.4.4,8.4,2,12.3,4,8.3,4.3,13.4,4.5,15.1.8,1.4-3.1,1.2-3.3-9.2-7.3-6-2.4-40.2-12.1-42.4-12.1-.3,0-.6,1.8-.6,4Z"/>
      <path class="cls-1" d="m356.4,403.61c-2.4.4-9.4,2.8-15.5,5.3-13.9,5.5-17.4,6.6-20.3,6.6-3.2,0-3,1.2.5,3.3,4.6,2.7,13,2.2,21.4-1.2,10.4-4.2,26.3-13.7,24.2-14.5-2-.7-4.7-.6-10.3.5Z"/>
      <path class="cls-1" d="m348.8,420.61c-6.5,1.1-16.9,6.2-20,10-3.3,3.9-3.3,5.1.2,4.3,15.1-3.3,20.1-5.2,27.2-10.4,3.9-3,4.2-3.4,2.5-4.1-2.4-.9-3.6-.9-9.9.2Z"/>
      <path class="cls-1" d="m511.2,503.41c-6.1.6-6.5.8-6.8,3.2l-.3,2.6,14.8.7c8.1.3,19.9,1.4,26.1,2.4,6.1,1,11.2,1.5,11.2,1,0-2.4-6.7-7.9-11.3-9.3-5.2-1.5-20.1-1.8-33.7-.6Z"/>
      <path class="cls-1" d="m637.8,527.71c2.7,3,12.2,7.1,23.8,10.2,12.6,3.5,19.3,6.5,23.4,10.5l3.2,3.3v-3.2c0-8-6.3-14.8-17-18.1-5.5-1.7-27.3-4.9-33.4-4.9q-1.9,0,0,2.2Z"/>
      <path class="cls-1" d="m404.5,538.61c-2.3,1.6-10.5,5.6-18.3,8.8-14.1,5.9-23.8,11.1-26.7,14.3-1.4,1.5-1.1,1.7,3.2,2.4,7.3,1,16.4-1.7,29-8.9,18.5-10.4,21.5-11.7,26-11,3.1.4,4.4.1,5.5-1.2,2.1-2.5,0-4.9-5.1-5.7-2.4-.4-5.5-.9-6.9-1.2-1.7-.3-3.9.5-6.7,2.5Z"/>
    </g>
  </g>
</svg>