<?xml version="1.0" encoding="utf-8"?>
<!-- Generator: Adobe Illustrator 27.6.1, SVG Export Plug-In . SVG Version: 6.00 Build 0)  -->
<svg version="1.1" id="Calque_1" xmlns="http://www.w3.org/2000/svg" xmlns:xlink="http://www.w3.org/1999/xlink" x="0px" y="0px"
	 viewBox="0 0 501.5 73" style="enable-background:new 0 0 501.5 73;" xml:space="preserve">
<style type="text/css">
	.st0{fill:none;stroke:#1D1D1B;stroke-width:3;stroke-miterlimit:10;}
</style>
<g>
	<g>
		<line class="st0" x1="1.5" y1="23.5" x2="1.5" y2="49.5"/>
		<line class="st0" x1="15.9" y1="23.5" x2="15.9" y2="49.5"/>
		<line class="st0" x1="8.7" y1="23.5" x2="8.7" y2="49.5"/>
	</g>
	<g>
		<line class="st0" x1="25.7" y1="23.5" x2="25.7" y2="49.5"/>
		<line class="st0" x1="40.2" y1="23.5" x2="40.2" y2="49.5"/>
		<line class="st0" x1="32.9" y1="23.5" x2="32.9" y2="49.5"/>
	</g>
	<g>
		<line class="st0" x1="49.9" y1="23.5" x2="49.9" y2="49.5"/>
		<line class="st0" x1="64.4" y1="23.5" x2="64.4" y2="49.5"/>
		<line class="st0" x1="57.1" y1="23.5" x2="57.1" y2="49.5"/>
	</g>
	<g>
		<line class="st0" x1="74.1" y1="23.5" x2="74.1" y2="49.5"/>
		<line class="st0" x1="88.6" y1="23.5" x2="88.6" y2="49.5"/>
		<line class="st0" x1="81.3" y1="23.5" x2="81.3" y2="49.5"/>
	</g>
	<g>
		<line class="st0" x1="98.3" y1="23.5" x2="98.3" y2="49.5"/>
		<line class="st0" x1="112.8" y1="23.5" x2="112.8" y2="49.5"/>
		<line class="st0" x1="105.5" y1="23.5" x2="105.5" y2="49.5"/>
	</g>
	<g>
		<line class="st0" x1="122.5" y1="23.5" x2="122.5" y2="49.5"/>
		<line class="st0" x1="137" y1="23.5" x2="137" y2="49.5"/>
		<line class="st0" x1="129.7" y1="23.5" x2="129.7" y2="49.5"/>
	</g>
	<g>
		<line class="st0" x1="146.7" y1="23.5" x2="146.7" y2="49.5"/>
		<line class="st0" x1="161.2" y1="23.5" x2="161.2" y2="49.5"/>
		<line class="st0" x1="153.9" y1="23.5" x2="153.9" y2="49.5"/>
	</g>
	<g>
		<line class="st0" x1="170.9" y1="23.5" x2="170.9" y2="49.5"/>
		<line class="st0" x1="185.4" y1="23.5" x2="185.4" y2="49.5"/>
		<line class="st0" x1="178.1" y1="23.5" x2="178.1" y2="49.5"/>
	</g>
	<g>
		<line class="st0" x1="195.1" y1="23.5" x2="195.1" y2="49.5"/>
		<line class="st0" x1="209.6" y1="23.5" x2="209.6" y2="49.5"/>
		<line class="st0" x1="202.4" y1="23.5" x2="202.4" y2="49.5"/>
	</g>
	<g>
		<line class="st0" x1="219.3" y1="23.5" x2="219.3" y2="49.5"/>
		<line class="st0" x1="233.8" y1="23.5" x2="233.8" y2="49.5"/>
		<line class="st0" x1="226.6" y1="23.5" x2="226.6" y2="49.5"/>
	</g>
	<g>
		<line class="st0" x1="243.5" y1="23.5" x2="243.5" y2="49.5"/>
		<line class="st0" x1="258" y1="23.5" x2="258" y2="49.5"/>
		<line class="st0" x1="250.8" y1="23.5" x2="250.8" y2="49.5"/>
	</g>
	<g>
		<line class="st0" x1="267.7" y1="23.5" x2="267.7" y2="49.5"/>
		<line class="st0" x1="282.2" y1="23.5" x2="282.2" y2="49.5"/>
		<line class="st0" x1="275" y1="23.5" x2="275" y2="49.5"/>
	</g>
	<g>
		<line class="st0" x1="291.9" y1="23.5" x2="291.9" y2="49.5"/>
		<line class="st0" x1="306.4" y1="23.5" x2="306.4" y2="49.5"/>
		<line class="st0" x1="299.2" y1="23.5" x2="299.2" y2="49.5"/>
	</g>
	<g>
		<line class="st0" x1="316.1" y1="23.5" x2="316.1" y2="49.5"/>
		<line class="st0" x1="330.6" y1="23.5" x2="330.6" y2="49.5"/>
		<line class="st0" x1="323.4" y1="23.5" x2="323.4" y2="49.5"/>
	</g>
	<g>
		<line class="st0" x1="340.4" y1="23.5" x2="340.4" y2="49.5"/>
		<line class="st0" x1="354.8" y1="23.5" x2="354.8" y2="49.5"/>
		<line class="st0" x1="347.6" y1="23.5" x2="347.6" y2="49.5"/>
	</g>
	<g>
		<line class="st0" x1="364.5" y1="23.5" x2="364.5" y2="49.5"/>
		<line class="st0" x1="379" y1="23.5" x2="379" y2="49.5"/>
		<line class="st0" x1="371.8" y1="23.5" x2="371.8" y2="49.5"/>
	</g>
	<g>
		<line class="st0" x1="388.8" y1="23.5" x2="388.8" y2="49.5"/>
		<line class="st0" x1="403.2" y1="23.5" x2="403.2" y2="49.5"/>
		<line class="st0" x1="396" y1="23.5" x2="396" y2="49.5"/>
	</g>
	<g>
		<line class="st0" x1="413" y1="23.5" x2="413" y2="49.5"/>
		<line class="st0" x1="427.4" y1="23.5" x2="427.4" y2="49.5"/>
		<line class="st0" x1="420.2" y1="23.5" x2="420.2" y2="49.5"/>
	</g>
	<g>
		<line class="st0" x1="437.2" y1="23.5" x2="437.2" y2="49.5"/>
		<line class="st0" x1="451.6" y1="23.5" x2="451.6" y2="49.5"/>
		<line class="st0" x1="444.4" y1="23.5" x2="444.4" y2="49.5"/>
	</g>
	<g>
		<line class="st0" x1="461.4" y1="23.5" x2="461.4" y2="49.5"/>
		<line class="st0" x1="475.8" y1="23.5" x2="475.8" y2="49.5"/>
		<line class="st0" x1="468.6" y1="23.5" x2="468.6" y2="49.5"/>
	</g>
	<g>
		<line class="st0" x1="485.6" y1="23.5" x2="485.6" y2="49.5"/>
		<line class="st0" x1="500" y1="23.5" x2="500" y2="49.5"/>
		<line class="st0" x1="492.8" y1="23.5" x2="492.8" y2="49.5"/>
	</g>
</g>
</svg>
