<?xml version="1.0" encoding="UTF-8"?>
<svg id="Calque_1" data-name="Calque 1" xmlns="http://www.w3.org/2000/svg" viewBox="0 0 501.52 73">
  <defs>
    <style>
      .cls-1 {
        fill: none;
        stroke: #1d1d1b;
        stroke-miterlimit: 10;
        stroke-width: 3px;
      }
    </style>
  </defs>
  <line class="cls-1" x1="1.5" x2="1.5" y2="26"/>
  <line class="cls-1" x1="15.95" x2="15.95" y2="26"/>
  <line class="cls-1" x1="30.4" x2="30.4" y2="26"/>
  <line class="cls-1" x1="44.85" x2="44.85" y2="26"/>
  <line class="cls-1" x1="59.3" x2="59.3" y2="26"/>
  <line class="cls-1" x1="73.75" x2="73.75" y2="26"/>
  <line class="cls-1" x1="88.2" x2="88.2" y2="26"/>
  <line class="cls-1" x1="102.65" x2="102.65" y2="26"/>
  <line class="cls-1" x1="117.1" x2="117.1" y2="26"/>
  <line class="cls-1" x1="146" x2="146" y2="26"/>
  <line class="cls-1" x1="131.55" x2="131.55" y2="26"/>
  <line class="cls-1" x1="160.45" x2="160.45" y2="26"/>
  <line class="cls-1" x1="174.9" x2="174.9" y2="26"/>
  <line class="cls-1" x1="189.35" x2="189.35" y2="26"/>
  <line class="cls-1" x1="203.8" x2="203.8" y2="26"/>
  <line class="cls-1" x1="218.25" x2="218.25" y2="26"/>
  <line class="cls-1" x1="232.7" x2="232.7" y2="26"/>
  <line class="cls-1" x1="247.15" x2="247.15" y2="26"/>
  <line class="cls-1" x1="261.6" x2="261.6" y2="26"/>
  <line class="cls-1" x1="290.5" x2="290.5" y2="26"/>
  <line class="cls-1" x1="276.05" x2="276.05" y2="26"/>
  <line class="cls-1" x1="304.95" x2="304.95" y2="26"/>
  <line class="cls-1" x1="319.4" x2="319.4" y2="26"/>
  <line class="cls-1" x1="333.85" x2="333.85" y2="26"/>
  <line class="cls-1" x1="348.3" x2="348.3" y2="26"/>
  <line class="cls-1" x1="362.75" x2="362.75" y2="26"/>
  <line class="cls-1" x1="377.2" x2="377.2" y2="26"/>
  <line class="cls-1" x1="391.65" x2="391.65" y2="26"/>
  <line class="cls-1" x1="406.1" x2="406.1" y2="26"/>
  <line class="cls-1" x1="420.55" x2="420.55" y2="26"/>
  <line class="cls-1" x1="435" x2="435" y2="26"/>
  <line class="cls-1" x1="449.45" x2="449.45" y2="26"/>
  <line class="cls-1" x1="463.9" x2="463.9" y2="26"/>
  <line class="cls-1" x1="478.35" x2="478.35" y2="26"/>
  <line class="cls-1" x1="492.8" x2="492.8" y2="26"/>
  <line class="cls-1" x1="8.72" x2="8.72" y2="26"/>
  <line class="cls-1" x1="23.17" x2="23.17" y2="26"/>
  <line class="cls-1" x1="37.62" x2="37.62" y2="26"/>
  <line class="cls-1" x1="52.07" x2="52.07" y2="26"/>
  <line class="cls-1" x1="66.52" x2="66.52" y2="26"/>
  <line class="cls-1" x1="80.97" x2="80.97" y2="26"/>
  <line class="cls-1" x1="95.42" x2="95.42" y2="26"/>
  <line class="cls-1" x1="109.87" x2="109.87" y2="26"/>
  <line class="cls-1" x1="124.32" x2="124.32" y2="26"/>
  <line class="cls-1" x1="153.22" x2="153.22" y2="26"/>
  <line class="cls-1" x1="138.77" x2="138.77" y2="26"/>
  <line class="cls-1" x1="167.67" x2="167.67" y2="26"/>
  <line class="cls-1" x1="182.12" x2="182.12" y2="26"/>
  <line class="cls-1" x1="196.57" x2="196.57" y2="26"/>
  <line class="cls-1" x1="211.02" x2="211.02" y2="26"/>
  <line class="cls-1" x1="225.47" x2="225.47" y2="26"/>
  <line class="cls-1" x1="239.92" x2="239.92" y2="26"/>
  <line class="cls-1" x1="254.37" x2="254.37" y2="26"/>
  <line class="cls-1" x1="268.82" x2="268.82" y2="26"/>
  <line class="cls-1" x1="297.72" x2="297.72" y2="26"/>
  <line class="cls-1" x1="283.27" x2="283.27" y2="26"/>
  <line class="cls-1" x1="312.17" x2="312.17" y2="26"/>
  <line class="cls-1" x1="326.62" x2="326.62" y2="26"/>
  <line class="cls-1" x1="341.07" x2="341.07" y2="26"/>
  <line class="cls-1" x1="355.52" x2="355.52" y2="26"/>
  <line class="cls-1" x1="369.97" x2="369.97" y2="26"/>
  <line class="cls-1" x1="384.42" x2="384.42" y2="26"/>
  <line class="cls-1" x1="398.87" x2="398.87" y2="26"/>
  <line class="cls-1" x1="413.32" x2="413.32" y2="26"/>
  <line class="cls-1" x1="427.77" x2="427.77" y2="26"/>
  <line class="cls-1" x1="442.22" x2="442.22" y2="26"/>
  <line class="cls-1" x1="456.67" x2="456.67" y2="26"/>
  <line class="cls-1" x1="471.12" x2="471.12" y2="26"/>
  <line class="cls-1" x1="485.57" x2="485.57" y2="26"/>
  <line class="cls-1" x1="500.02" x2="500.02" y2="26"/>
  <g>
    <line class="cls-1" x1="1.5" y1="47" x2="1.5" y2="73"/>
    <line class="cls-1" x1="15.95" y1="47" x2="15.95" y2="73"/>
    <line class="cls-1" x1="8.72" y1="47" x2="8.72" y2="73"/>
  </g>
  <g>
    <line class="cls-1" x1="25.7" y1="47" x2="25.7" y2="73"/>
    <line class="cls-1" x1="40.15" y1="47" x2="40.15" y2="73"/>
    <line class="cls-1" x1="32.93" y1="47" x2="32.93" y2="73"/>
  </g>
  <g>
    <line class="cls-1" x1="49.91" y1="47" x2="49.91" y2="73"/>
    <line class="cls-1" x1="64.36" y1="47" x2="64.36" y2="73"/>
    <line class="cls-1" x1="57.13" y1="47" x2="57.13" y2="73"/>
  </g>
  <g>
    <line class="cls-1" x1="74.11" y1="47" x2="74.11" y2="73"/>
    <line class="cls-1" x1="88.56" y1="47" x2="88.56" y2="73"/>
    <line class="cls-1" x1="81.34" y1="47" x2="81.34" y2="73"/>
  </g>
  <g>
    <line class="cls-1" x1="98.31" y1="47" x2="98.31" y2="73"/>
    <line class="cls-1" x1="112.76" y1="47" x2="112.76" y2="73"/>
    <line class="cls-1" x1="105.54" y1="47" x2="105.54" y2="73"/>
  </g>
  <g>
    <line class="cls-1" x1="122.52" y1="47" x2="122.52" y2="73"/>
    <line class="cls-1" x1="136.97" y1="47" x2="136.97" y2="73"/>
    <line class="cls-1" x1="129.74" y1="47" x2="129.74" y2="73"/>
  </g>
  <g>
    <line class="cls-1" x1="146.72" y1="47" x2="146.72" y2="73"/>
    <line class="cls-1" x1="161.17" y1="47" x2="161.17" y2="73"/>
    <line class="cls-1" x1="153.95" y1="47" x2="153.95" y2="73"/>
  </g>
  <g>
    <line class="cls-1" x1="170.93" y1="47" x2="170.93" y2="73"/>
    <line class="cls-1" x1="185.37" y1="47" x2="185.37" y2="73"/>
    <line class="cls-1" x1="178.15" y1="47" x2="178.15" y2="73"/>
  </g>
  <g>
    <line class="cls-1" x1="195.13" y1="47" x2="195.13" y2="73"/>
    <line class="cls-1" x1="209.58" y1="47" x2="209.58" y2="73"/>
    <line class="cls-1" x1="202.35" y1="47" x2="202.35" y2="73"/>
  </g>
  <g>
    <line class="cls-1" x1="219.33" y1="47" x2="219.33" y2="73"/>
    <line class="cls-1" x1="233.78" y1="47" x2="233.78" y2="73"/>
    <line class="cls-1" x1="226.56" y1="47" x2="226.56" y2="73"/>
  </g>
  <g>
    <line class="cls-1" x1="243.54" y1="47" x2="243.54" y2="73"/>
    <line class="cls-1" x1="257.99" y1="47" x2="257.99" y2="73"/>
    <line class="cls-1" x1="250.76" y1="47" x2="250.76" y2="73"/>
  </g>
  <g>
    <line class="cls-1" x1="267.74" y1="47" x2="267.74" y2="73"/>
    <line class="cls-1" x1="282.19" y1="47" x2="282.19" y2="73"/>
    <line class="cls-1" x1="274.96" y1="47" x2="274.96" y2="73"/>
  </g>
  <g>
    <line class="cls-1" x1="291.94" y1="47" x2="291.94" y2="73"/>
    <line class="cls-1" x1="306.39" y1="47" x2="306.39" y2="73"/>
    <line class="cls-1" x1="299.17" y1="47" x2="299.17" y2="73"/>
  </g>
  <g>
    <line class="cls-1" x1="316.15" y1="47" x2="316.15" y2="73"/>
    <line class="cls-1" x1="330.6" y1="47" x2="330.6" y2="73"/>
    <line class="cls-1" x1="323.37" y1="47" x2="323.37" y2="73"/>
  </g>
  <g>
    <line class="cls-1" x1="340.35" y1="47" x2="340.35" y2="73"/>
    <line class="cls-1" x1="354.8" y1="47" x2="354.8" y2="73"/>
    <line class="cls-1" x1="347.58" y1="47" x2="347.58" y2="73"/>
  </g>
  <g>
    <line class="cls-1" x1="364.55" y1="47" x2="364.55" y2="73"/>
    <line class="cls-1" x1="379" y1="47" x2="379" y2="73"/>
    <line class="cls-1" x1="371.78" y1="47" x2="371.78" y2="73"/>
  </g>
  <g>
    <line class="cls-1" x1="388.76" y1="47" x2="388.76" y2="73"/>
    <line class="cls-1" x1="403.21" y1="47" x2="403.21" y2="73"/>
    <line class="cls-1" x1="395.98" y1="47" x2="395.98" y2="73"/>
  </g>
  <g>
    <line class="cls-1" x1="412.96" y1="47" x2="412.96" y2="73"/>
    <line class="cls-1" x1="427.41" y1="47" x2="427.41" y2="73"/>
    <line class="cls-1" x1="420.19" y1="47" x2="420.19" y2="73"/>
  </g>
  <g>
    <line class="cls-1" x1="437.16" y1="47" x2="437.16" y2="73"/>
    <line class="cls-1" x1="451.61" y1="47" x2="451.61" y2="73"/>
    <line class="cls-1" x1="444.39" y1="47" x2="444.39" y2="73"/>
  </g>
  <g>
    <line class="cls-1" x1="461.37" y1="47" x2="461.37" y2="73"/>
    <line class="cls-1" x1="475.82" y1="47" x2="475.82" y2="73"/>
    <line class="cls-1" x1="468.59" y1="47" x2="468.59" y2="73"/>
  </g>
  <g>
    <line class="cls-1" x1="485.57" y1="47" x2="485.57" y2="73"/>
    <line class="cls-1" x1="500.02" y1="47" x2="500.02" y2="73"/>
    <line class="cls-1" x1="492.8" y1="47" x2="492.8" y2="73"/>
  </g>
</svg>