<?xml version="1.0" encoding="utf-8"?>
<!-- Generator: Adobe Illustrator 27.6.1, SVG Export Plug-In . SVG Version: 6.00 Build 0)  -->
<svg version="1.1" id="Calque_1" xmlns="http://www.w3.org/2000/svg" xmlns:xlink="http://www.w3.org/1999/xlink" x="0px" y="0px"
	 viewBox="0 0 501.5 73" style="enable-background:new 0 0 501.5 73;" xml:space="preserve">
<style type="text/css">
	.st0{fill:none;stroke:#1D1D1B;stroke-width:3;stroke-miterlimit:10;}
</style>
<g>
	<line class="st0" x1="1.5" y1="23.5" x2="1.5" y2="49.5"/>
	<line class="st0" x1="15.9" y1="23.5" x2="15.9" y2="49.5"/>
	<line class="st0" x1="30.4" y1="23.5" x2="30.4" y2="49.5"/>
	<line class="st0" x1="44.8" y1="23.5" x2="44.8" y2="49.5"/>
	<line class="st0" x1="59.3" y1="23.5" x2="59.3" y2="49.5"/>
	<line class="st0" x1="73.8" y1="23.5" x2="73.8" y2="49.5"/>
	<line class="st0" x1="88.2" y1="23.5" x2="88.2" y2="49.5"/>
	<line class="st0" x1="102.7" y1="23.5" x2="102.7" y2="49.5"/>
	<line class="st0" x1="117.1" y1="23.5" x2="117.1" y2="49.5"/>
	<line class="st0" x1="146" y1="23.5" x2="146" y2="49.5"/>
	<line class="st0" x1="131.6" y1="23.5" x2="131.6" y2="49.5"/>
	<line class="st0" x1="160.4" y1="23.5" x2="160.4" y2="49.5"/>
	<line class="st0" x1="174.9" y1="23.5" x2="174.9" y2="49.5"/>
	<line class="st0" x1="189.4" y1="23.5" x2="189.4" y2="49.5"/>
	<line class="st0" x1="203.8" y1="23.5" x2="203.8" y2="49.5"/>
	<line class="st0" x1="218.2" y1="23.5" x2="218.2" y2="49.5"/>
	<line class="st0" x1="232.7" y1="23.5" x2="232.7" y2="49.5"/>
	<line class="st0" x1="247.1" y1="23.5" x2="247.1" y2="49.5"/>
	<line class="st0" x1="261.6" y1="23.5" x2="261.6" y2="49.5"/>
	<line class="st0" x1="290.5" y1="23.5" x2="290.5" y2="49.5"/>
	<line class="st0" x1="276" y1="23.5" x2="276" y2="49.5"/>
	<line class="st0" x1="305" y1="23.5" x2="305" y2="49.5"/>
	<line class="st0" x1="319.4" y1="23.5" x2="319.4" y2="49.5"/>
	<line class="st0" x1="333.9" y1="23.5" x2="333.9" y2="49.5"/>
	<line class="st0" x1="348.3" y1="23.5" x2="348.3" y2="49.5"/>
	<line class="st0" x1="362.8" y1="23.5" x2="362.8" y2="49.5"/>
	<line class="st0" x1="377.2" y1="23.5" x2="377.2" y2="49.5"/>
	<line class="st0" x1="391.6" y1="23.5" x2="391.6" y2="49.5"/>
	<line class="st0" x1="406.1" y1="23.5" x2="406.1" y2="49.5"/>
	<line class="st0" x1="420.5" y1="23.5" x2="420.5" y2="49.5"/>
	<line class="st0" x1="435" y1="23.5" x2="435" y2="49.5"/>
	<line class="st0" x1="449.5" y1="23.5" x2="449.5" y2="49.5"/>
	<line class="st0" x1="463.9" y1="23.5" x2="463.9" y2="49.5"/>
	<line class="st0" x1="478.4" y1="23.5" x2="478.4" y2="49.5"/>
	<line class="st0" x1="492.8" y1="23.5" x2="492.8" y2="49.5"/>
	<line class="st0" x1="8.7" y1="23.5" x2="8.7" y2="49.5"/>
	<line class="st0" x1="23.2" y1="23.5" x2="23.2" y2="49.5"/>
	<line class="st0" x1="37.6" y1="23.5" x2="37.6" y2="49.5"/>
	<line class="st0" x1="52.1" y1="23.5" x2="52.1" y2="49.5"/>
	<line class="st0" x1="66.5" y1="23.5" x2="66.5" y2="49.5"/>
	<line class="st0" x1="81" y1="23.5" x2="81" y2="49.5"/>
	<line class="st0" x1="95.4" y1="23.5" x2="95.4" y2="49.5"/>
	<line class="st0" x1="109.9" y1="23.5" x2="109.9" y2="49.5"/>
	<line class="st0" x1="124.3" y1="23.5" x2="124.3" y2="49.5"/>
	<line class="st0" x1="153.2" y1="23.5" x2="153.2" y2="49.5"/>
	<line class="st0" x1="138.8" y1="23.5" x2="138.8" y2="49.5"/>
	<line class="st0" x1="167.7" y1="23.5" x2="167.7" y2="49.5"/>
	<line class="st0" x1="182.1" y1="23.5" x2="182.1" y2="49.5"/>
	<line class="st0" x1="196.6" y1="23.5" x2="196.6" y2="49.5"/>
	<line class="st0" x1="211" y1="23.5" x2="211" y2="49.5"/>
	<line class="st0" x1="225.5" y1="23.5" x2="225.5" y2="49.5"/>
	<line class="st0" x1="239.9" y1="23.5" x2="239.9" y2="49.5"/>
	<line class="st0" x1="254.4" y1="23.5" x2="254.4" y2="49.5"/>
	<line class="st0" x1="268.8" y1="23.5" x2="268.8" y2="49.5"/>
	<line class="st0" x1="297.7" y1="23.5" x2="297.7" y2="49.5"/>
	<line class="st0" x1="283.3" y1="23.5" x2="283.3" y2="49.5"/>
	<line class="st0" x1="312.2" y1="23.5" x2="312.2" y2="49.5"/>
	<line class="st0" x1="326.6" y1="23.5" x2="326.6" y2="49.5"/>
	<line class="st0" x1="341.1" y1="23.5" x2="341.1" y2="49.5"/>
	<line class="st0" x1="355.5" y1="23.5" x2="355.5" y2="49.5"/>
	<line class="st0" x1="370" y1="23.5" x2="370" y2="49.5"/>
	<line class="st0" x1="384.4" y1="23.5" x2="384.4" y2="49.5"/>
	<line class="st0" x1="398.9" y1="23.5" x2="398.9" y2="49.5"/>
	<line class="st0" x1="413.3" y1="23.5" x2="413.3" y2="49.5"/>
	<line class="st0" x1="427.8" y1="23.5" x2="427.8" y2="49.5"/>
	<line class="st0" x1="442.2" y1="23.5" x2="442.2" y2="49.5"/>
	<line class="st0" x1="456.7" y1="23.5" x2="456.7" y2="49.5"/>
	<line class="st0" x1="471.1" y1="23.5" x2="471.1" y2="49.5"/>
	<line class="st0" x1="485.6" y1="23.5" x2="485.6" y2="49.5"/>
	<line class="st0" x1="500" y1="23.5" x2="500" y2="49.5"/>
</g>
</svg>
