<?xml version="1.0" encoding="UTF-8"?>
<svg id="Clock" xmlns="http://www.w3.org/2000/svg" viewBox="0 0 1150.35 1332.01">
  <defs>
    <style>
      .cls-1, .cls-2, .cls-3 {
        fill: #fff;
      }

      .cls-4 {
        fill: #999;
      }

      .cls-4, .cls-5 {
        font-family: Noteworthy-Bold, Noteworthy;
        font-size: 57px;
        font-weight: 700;
      }

      .cls-5 {
        fill: red;
      }

      .cls-2 {
        stroke-width: 9px;
      }

      .cls-2, .cls-3 {
        stroke: #000;
        stroke-miterlimit: 10;
      }

      .cls-3 {
        stroke-width: 3.72px;
      }
    </style>
  </defs>
  <circle class="cls-3" cx="586.98" cy="617.11" r="427.3"/>
  <polygon class="cls-2" points="586.98 617.11 886.39 317.71 586.98 617.11 978.17 455.08 586.98 617.11 1010.4 617.12 586.98 617.11 978.17 779.16 586.98 617.11 886.38 916.52 586.98 617.11 749 1008.31 586.98 617.11 586.97 1040.53 586.98 617.11 424.93 1008.3 586.98 617.11 287.56 916.51 586.98 617.11 195.78 779.14 586.98 617.11 163.55 617.1 586.98 617.11 195.79 455.06 586.98 617.11 287.58 317.7 586.98 617.11 424.95 225.91 586.98 617.11 586.99 193.69 586.98 617.11 749.02 225.92 586.98 617.11"/>
  <circle class="cls-1" cx="586.98" cy="617.11" r="366.72"/>
  <text class="cls-4" transform="translate(578.07 164.67)"><tspan x="0" y="0">1</tspan></text>
  <text class="cls-5" transform="translate(578.07 92.16)"><tspan x="0" y="0">1</tspan></text>
  <text class="cls-5" transform="translate(1107.75 634.21)"><tspan x="0" y="0">2</tspan></text>
  <text class="cls-5" transform="translate(1053.82 834.47)"><tspan x="0" y="0">3</tspan></text>
  <text class="cls-5" transform="translate(935.59 1040.53)"><tspan x="0" y="0">4</tspan></text>
  <text class="cls-5" transform="translate(771.2 1164.2)"><tspan x="0" y="0">5</tspan></text>
  <text class="cls-5" transform="translate(565.17 1203.91)"><tspan x="0" y="0">6</tspan></text>
  <text class="cls-5" transform="translate(355.47 1164.2)"><tspan x="0" y="0">7</tspan></text>
  <text class="cls-5" transform="translate(178.58 1040.53)"><tspan x="0" y="0">8</tspan></text>
  <text class="cls-5" transform="translate(64.91 845.46)"><tspan x="0" y="0">9</tspan></text>
  <text class="cls-5" transform="translate(47.81 424.82)"><tspan x="0" y="0">11</tspan></text>
  <text class="cls-5" transform="translate(145.9 262.54)"><tspan x="0" y="0">12</tspan></text>
  <text class="cls-5" transform="translate(356.1 115.8)"><tspan x="0" y="0">13</tspan></text>
  <text class="cls-5" transform="translate(0 642.34)"><tspan x="0" y="0">10</tspan></text>
  <text class="cls-4" transform="translate(749.38 193.69)"><tspan x="0" y="0">2</tspan></text>
  <text class="cls-4" transform="translate(902.21 299.9)"><tspan x="0" y="0">3</tspan></text>
  <text class="cls-4" transform="translate(1006.28 455.45)"><tspan x="0" y="0">4</tspan></text>
  <text class="cls-4" transform="translate(1005.42 813.55)"><tspan x="0" y="0">6</tspan></text>
  <text class="cls-4" transform="translate(906.48 987.09)"><tspan x="0" y="0">7</tspan></text>
  <text class="cls-4" transform="translate(748.99 1099.11)"><tspan x="0" y="0">8</tspan></text>
  <text class="cls-4" transform="translate(567.28 1133.36)"><tspan x="0" y="0">9</tspan></text>
  <text class="cls-4" transform="translate(374.47 1092.73)"><tspan x="0" y="0">10</tspan></text>
  <text class="cls-4" transform="translate(231.37 987.09)"><tspan x="0" y="0">11</tspan></text>
  <text class="cls-4" transform="translate(113.34 822.26)"><tspan x="0" y="0">12</tspan></text>
  <text class="cls-4" transform="translate(75.8 642.34)"><tspan x="0" y="0">13</tspan></text>
  <text class="cls-4" transform="translate(109.64 449.06)"><tspan x="0" y="0">14</tspan></text>
  <text class="cls-4" transform="translate(209.05 303.38)"><tspan x="0" y="0">15</tspan></text>
  <text class="cls-4" transform="translate(379.25 189.81)"><tspan x="0" y="0">16</tspan></text>
  <text class="cls-4" transform="translate(1042.31 634.21)"><tspan x="0" y="0">5</tspan></text>
</svg>