<?xml version="1.0" encoding="utf-8"?>
<!-- Generator: Adobe Illustrator 27.6.1, SVG Export Plug-In . SVG Version: 6.00 Build 0)  -->
<svg version="1.1" id="Calque_1" xmlns="http://www.w3.org/2000/svg" xmlns:xlink="http://www.w3.org/1999/xlink" x="0px" y="0px"
	 viewBox="0 0 595.3 841.9" style="enable-background:new 0 0 595.3 841.9;" xml:space="preserve">
<style type="text/css">
	.st0{fill:none;stroke:#000000;stroke-width:0.6201;stroke-linejoin:bevel;stroke-miterlimit:10;}
	.st1{font-family:'OpusTextStd';}
	.st2{font-size:10.0767px;}
	.st3{font-family:'OpusStd';}
	.st4{font-size:19.8434px;}
	.st5{fill-rule:evenodd;clip-rule:evenodd;}
	.st6{font-family:'OpusSpecialStd';}
	.st7{fill:none;stroke:#000000;stroke-width:0.6376;stroke-linejoin:bevel;stroke-miterlimit:10;}
	.st8{fill:none;stroke:#000000;stroke-width:0.6306;stroke-linejoin:bevel;stroke-miterlimit:10;}
</style>
<g>
	<g transform="matrix(0.620079,0,0,0.620079,0,0)">
		<line vector-effect="none" class="st0" x1="127.8" y1="350.4" x2="127.8" y2="358.7"/>
	</g>
	<g transform="matrix(0.620079,0,0,0.620079,0,0)">
		<line vector-effect="none" class="st0" x1="197.5" y1="350.4" x2="197.5" y2="358.7"/>
	</g>
	<g transform="matrix(0.620079,0,0,0.620079,0,0)">
		<line vector-effect="none" class="st0" x1="127.8" y1="350.7" x2="155.3" y2="350.7"/>
	</g>
	<g transform="matrix(0.620079,0,0,0.620079,0,0)">
		<line vector-effect="none" class="st0" x1="170" y1="350.7" x2="197.5" y2="350.7"/>
	</g>
	<g transform="matrix(0.620079,0,0,0.620079,356.545,447.64)">
		<text transform="matrix(1.6127 0 0 1.6127 -418.1374 -365.2465)" class="st1 st2">3</text>
	</g>
	<g transform="matrix(0.620079,0,0,0.620079,0,0)">
		<line vector-effect="none" class="st0" x1="138" y1="387.4" x2="138" y2="360.7"/>
	</g>
	<g transform="matrix(0.620079,0,0,0.620079,0,0)">
		<text transform="matrix(1.6127 0 0 1.6127 127.505 388.6864)" class="st3 st4"></text>
	</g>
	<g transform="matrix(0.620079,0,0,0.620079,0,0)">
		<line vector-effect="none" class="st0" x1="165.8" y1="387.4" x2="165.8" y2="360.7"/>
	</g>
	<g transform="matrix(0.620079,0,0,0.620079,0,0)">
		<text transform="matrix(1.6127 0 0 1.6127 155.2563 388.6864)" class="st3 st4"></text>
	</g>
	<g transform="matrix(0.620079,0,0,0.620079,0,0)">
		<line vector-effect="none" class="st0" x1="193.3" y1="387.4" x2="193.3" y2="360.7"/>
	</g>
	<g transform="matrix(0.620079,0,0,0.620079,0,0)">
		<text transform="matrix(1.6127 0 0 1.6127 182.7572 388.6864)" class="st3 st4"></text>
	</g>
</g>
<g>
	<g transform="matrix(0.620079,0,0,0.620079,0,0)">
		<path vector-effect="none" class="st5" d="M118.5,115.1h87.3v-4h-87.3V115.1"/>
	</g>
	<g transform="matrix(0.620079,0,0,0.620079,613.258,453.221)">
		<text transform="matrix(1.6127 0 0 1.6127 -830.9813 -623.5778)" class="st1 st2">5</text>
	</g>
	<g transform="matrix(0.620079,0,0,0.620079,0,0)">
		<line vector-effect="none" class="st0" x1="118.5" y1="135.9" x2="118.5" y2="111.4"/>
	</g>
	<g transform="matrix(0.620079,0,0,0.620079,0,0)">
		<text transform="matrix(1.6127 0 0 1.6127 107.9847 137.1049)" class="st3 st4"></text>
	</g>
	<g transform="matrix(0.620079,0,0,0.620079,0,0)">
		<line vector-effect="none" class="st0" x1="140.2" y1="135.9" x2="140.2" y2="111.4"/>
	</g>
	<g transform="matrix(0.620079,0,0,0.620079,0,0)">
		<text transform="matrix(1.6127 0 0 1.6127 129.7357 137.1049)" class="st3 st4"></text>
	</g>
	<g transform="matrix(0.620079,0,0,0.620079,0,0)">
		<line vector-effect="none" class="st0" x1="162" y1="135.9" x2="162" y2="111.4"/>
	</g>
	<g transform="matrix(0.620079,0,0,0.620079,0,0)">
		<text transform="matrix(1.6127 0 0 1.6127 151.4866 137.1049)" class="st3 st4"></text>
	</g>
	<g transform="matrix(0.620079,0,0,0.620079,0,0)">
		<line vector-effect="none" class="st0" x1="184" y1="135.9" x2="184" y2="111.4"/>
	</g>
	<g transform="matrix(0.620079,0,0,0.620079,0,0)">
		<text transform="matrix(1.6127 0 0 1.6127 173.488 137.1049)" class="st3 st4"></text>
	</g>
	<g transform="matrix(0.620079,0,0,0.620079,0,0)">
		<line vector-effect="none" class="st0" x1="205.7" y1="135.9" x2="205.7" y2="111.4"/>
	</g>
	<g transform="matrix(0.620079,0,0,0.620079,0,0)">
		<text transform="matrix(1.6127 0 0 1.6127 195.2389 137.1049)" class="st3 st4"></text>
	</g>
</g>
<g>
	<g transform="matrix(0.620079,0,0,0.620079,0,0)">
		<line vector-effect="none" class="st0" x1="558.4" y1="382.5" x2="558.4" y2="390.7"/>
	</g>
	<g transform="matrix(0.620079,0,0,0.620079,0,0)">
		<line vector-effect="none" class="st0" x1="628.1" y1="382.5" x2="628.1" y2="390.7"/>
	</g>
	<g transform="matrix(0.620079,0,0,0.620079,0,0)">
		<line vector-effect="none" class="st0" x1="558.4" y1="382.7" x2="578.6" y2="382.7"/>
	</g>
	<g transform="matrix(0.620079,0,0,0.620079,0,0)">
		<line vector-effect="none" class="st0" x1="607.9" y1="382.7" x2="628.1" y2="382.7"/>
	</g>
	<g transform="matrix(0.620079,0,0,0.620079,844.547,447.64)">
		<text transform="matrix(1.6127 0 0 1.6127 -781.7255 -333.2215)" class="st1 st2">3:2</text>
	</g>
	<g transform="matrix(0.620079,0,0,0.620079,0,0)">
		<line vector-effect="none" class="st0" x1="568.6" y1="419.5" x2="568.6" y2="392.7"/>
	</g>
	<g transform="matrix(0.620079,0,0,0.620079,0,0)">
		<text transform="matrix(1.6127 0 0 1.6127 558.1044 420.7113)" class="st3 st4"></text>
	</g>
	<g transform="matrix(0.620079,0,0,0.620079,0,0)">
		<line vector-effect="none" class="st0" x1="596.4" y1="419.5" x2="596.4" y2="392.7"/>
	</g>
	<g transform="matrix(0.620079,0,0,0.620079,0,0)">
		<text transform="matrix(1.6127 0 0 1.6127 585.8557 420.7113)" class="st3 st4"></text>
	</g>
	<g transform="matrix(0.620079,0,0,0.620079,0,0)">
		<line vector-effect="none" class="st0" x1="623.9" y1="419.5" x2="623.9" y2="392.7"/>
	</g>
	<g transform="matrix(0.620079,0,0,0.620079,0,0)">
		<text transform="matrix(1.6127 0 0 1.6127 613.3566 420.7113)" class="st3 st4"></text>
	</g>
</g>
<g>
	<g transform="matrix(0.620079,0,0,0.620079,0,0)">
		<path vector-effect="none" class="st5" d="M400.3,411.2h87.3v-4h-87.3V411.2"/>
	</g>
	<g transform="matrix(0.620079,0,0,0.620079,1101.88,453.221)">
		<text transform="matrix(1.6127 0 0 1.6127 -1344.481 -327.4602)" class="st1 st2">5:4</text>
	</g>
	<g transform="matrix(0.620079,0,0,0.620079,0,0)">
		<line vector-effect="none" class="st0" x1="400.3" y1="432" x2="400.3" y2="407.5"/>
	</g>
	<g transform="matrix(0.620079,0,0,0.620079,0,0)">
		<text transform="matrix(1.6127 0 0 1.6127 389.7662 433.2225)" class="st3 st4"></text>
	</g>
	<g transform="matrix(0.620079,0,0,0.620079,0,0)">
		<line vector-effect="none" class="st0" x1="422" y1="432" x2="422" y2="407.5"/>
	</g>
	<g transform="matrix(0.620079,0,0,0.620079,0,0)">
		<text transform="matrix(1.6127 0 0 1.6127 411.5171 433.2225)" class="st3 st4"></text>
	</g>
	<g transform="matrix(0.620079,0,0,0.620079,0,0)">
		<line vector-effect="none" class="st0" x1="444" y1="432" x2="444" y2="407.5"/>
	</g>
	<g transform="matrix(0.620079,0,0,0.620079,0,0)">
		<text transform="matrix(1.6127 0 0 1.6127 433.5185 433.2225)" class="st3 st4"></text>
	</g>
	<g transform="matrix(0.620079,0,0,0.620079,0,0)">
		<line vector-effect="none" class="st0" x1="465.8" y1="432" x2="465.8" y2="407.5"/>
	</g>
	<g transform="matrix(0.620079,0,0,0.620079,0,0)">
		<text transform="matrix(1.6127 0 0 1.6127 455.2694 433.2225)" class="st3 st4"></text>
	</g>
	<g transform="matrix(0.620079,0,0,0.620079,0,0)">
		<line vector-effect="none" class="st0" x1="487.5" y1="432" x2="487.5" y2="407.5"/>
	</g>
	<g transform="matrix(0.620079,0,0,0.620079,0,0)">
		<text transform="matrix(1.6127 0 0 1.6127 477.0196 433.2225)" class="st3 st4"></text>
	</g>
</g>
<g>
	<g transform="matrix(0.620079,0,0,0.620079,0,0)">
		<line vector-effect="none" class="st0" x1="385.5" y1="267.3" x2="385.5" y2="277.6"/>
	</g>
	<g transform="matrix(0.620079,0,0,0.620079,0,0)">
		<line vector-effect="none" class="st0" x1="385.5" y1="267.6" x2="396" y2="267.6"/>
	</g>
	<g transform="matrix(0.620079,0,0,0.620079,1388.98,441.439)">
		<text transform="matrix(1.6127 0 0 1.6127 -1839.9872 -438.5851)" class="st1 st2">5:3</text>
	</g>
	<g transform="matrix(0.620079,0,0,0.620079,0,0)">
		<line vector-effect="none" class="st0" x1="437.5" y1="267.3" x2="437.5" y2="277.6"/>
	</g>
	<g transform="matrix(0.620079,0,0,0.620079,0,0)">
		<line vector-effect="none" class="st0" x1="429.5" y1="267.6" x2="437.5" y2="267.6"/>
	</g>
	<g transform="matrix(0.620079,0,0,0.620079,0,0)">
		<line vector-effect="none" class="st0" x1="396.5" y1="306.6" x2="396.5" y2="279.8"/>
	</g>
	<g transform="matrix(0.620079,0,0,0.620079,0,0)">
		<text transform="matrix(1.6127 0 0 1.6127 386.0168 307.8476)" class="st3 st4"></text>
	</g>
	<g transform="matrix(0.620079,0,0,0.620079,0,0)">
		<line vector-effect="none" class="st0" x1="431" y1="306.6" x2="431" y2="279.8"/>
	</g>
	<g transform="matrix(0.620079,0,0,0.620079,0,0)">
		<text transform="matrix(1.6127 0 0 1.6127 420.5166 307.8476)" class="st3 st4"></text>
	</g>
	<g transform="matrix(0.620079,0,0,0.620079,0,0)">
		<text transform="matrix(1.6127 0 0 1.6127 436.768 303.8473)" class="st6 st4"></text>
	</g>
	<g transform="matrix(0.620079,0,0,0.620079,0,0)">
		<text transform="matrix(1.6127 0 0 1.6127 430.5172 287.8463)" class="st3 st4"></text>
	</g>
</g>
<g>
	<g transform="matrix(0.620079,0,0,0.620079,0,0)">
	</g>
	<g transform="matrix(0.620079,0,0,0.620079,356.545,447.64)">
	</g>
	<g transform="matrix(0.620079,0,0,0.620079,356.545,447.64)">
	</g>
	<g transform="matrix(0.620079,0,0,0.620079,0,0)">
	</g>
	<g transform="matrix(0.620079,0,0,0.620079,0,0)">
	</g>
	<g transform="matrix(0.620079,0,0,0.620079,844.547,447.64)">
	</g>
	<g transform="matrix(0.620079,0,0,0.620079,844.547,447.64)">
	</g>
	<g transform="matrix(0.620079,0,0,0.620079,0,0)">
	</g>
	<g transform="matrix(0.620079,0,0,0.620079,0,0)">
	</g>
	<g transform="matrix(0.620079,0,0,0.620079,1388.98,441.439)">
	</g>
	<g transform="matrix(0.620079,0,0,0.620079,1388.98,441.439)">
		<text transform="matrix(1.6127 0 0 1.6127 -1697.9221 -627.0303)" class="st1 st2">5:3</text>
	</g>
	<g transform="matrix(0.620079,0,0,0.620079,1388.98,441.439)">
	</g>
	<g transform="matrix(0.620079,0,0,0.620079,0,0)">
	</g>
	<g transform="matrix(0.620079,0,0,0.620079,0,0)">
		<line vector-effect="none" class="st0" x1="387.7" y1="79.8" x2="387.7" y2="90"/>
	</g>
	<g transform="matrix(0.620079,0,0,0.620079,0,0)">
		<line vector-effect="none" class="st7" x1="387.7" y1="80" x2="536.3" y2="80"/>
	</g>
	<g transform="matrix(0.620079,0,0,0.620079,0,0)">
	</g>
	<g transform="matrix(0.620079,0,0,0.620079,613.258,453.221)">
	</g>
	<g transform="matrix(0.620079,0,0,0.620079,613.258,453.221)">
	</g>
	<g transform="matrix(0.620079,0,0,0.620079,0,0)">
	</g>
	<g transform="matrix(0.620079,0,0,0.620079,1101.88,453.221)">
	</g>
	<g transform="matrix(0.620079,0,0,0.620079,1101.88,453.221)">
	</g>
	<g transform="matrix(0.620079,0,0,0.620079,0,0)">
	</g>
	<g transform="matrix(0.620079,0,0,0.620079,0,0)">
		<line vector-effect="none" class="st0" x1="396.5" y1="122.2" x2="396.5" y2="95.5"/>
	</g>
	<g transform="matrix(0.620079,0,0,0.620079,0,0)">
		<text transform="matrix(1.6127 0 0 1.6127 386.0175 123.4683)" class="st3 st4"></text>
	</g>
	<g transform="matrix(0.620079,0,0,0.620079,0,0)">
		<line vector-effect="none" class="st0" x1="386.5" y1="140.7" x2="386.5" y2="161.4"/>
	</g>
	<g transform="matrix(0.620079,0,0,0.620079,0,0)">
		<text transform="matrix(1.6127 0 0 1.6127 386.0175 139.4055)" class="st3 st4"></text>
	</g>
	<g transform="matrix(0.620079,0,0,0.620079,0,0)">
		<line vector-effect="none" class="st0" x1="431" y1="122.2" x2="431" y2="95.5"/>
	</g>
	<g transform="matrix(0.620079,0,0,0.620079,0,0)">
		<text transform="matrix(1.6127 0 0 1.6127 420.5173 123.4683)" class="st3 st4"></text>
	</g>
	<g transform="matrix(0.620079,0,0,0.620079,0,0)">
		<text transform="matrix(1.6127 0 0 1.6127 436.7687 119.4681)" class="st6 st4"></text>
	</g>
	<g transform="matrix(0.620079,0,0,0.620079,0,0)">
		<line vector-effect="none" class="st0" x1="469" y1="122.2" x2="469" y2="95.5"/>
	</g>
	<g transform="matrix(0.620079,0,0,0.620079,0,0)">
		<text transform="matrix(1.6127 0 0 1.6127 458.5197 123.4683)" class="st3 st4"></text>
	</g>
	<g transform="matrix(0.620079,0,0,0.620079,0,0)">
		<line vector-effect="none" class="st0" x1="440" y1="140.7" x2="440" y2="161.4"/>
	</g>
	<g transform="matrix(0.620079,0,0,0.620079,0,0)">
		<text transform="matrix(1.6127 0 0 1.6127 439.5201 139.4055)" class="st3 st4"></text>
	</g>
	<g transform="matrix(0.620079,0,0,0.620079,0,0)">
		<text transform="matrix(1.6127 0 0 1.6127 455.7699 139.4055)" class="st6 st4"></text>
	</g>
	<g transform="matrix(0.620079,0,0,0.620079,0,0)">
		<text transform="matrix(1.6127 0 0 1.6127 439.5201 153.4064)" class="st3 st4"></text>
	</g>
	<g transform="matrix(0.620079,0,0,0.620079,0,0)">
		<line vector-effect="none" class="st0" x1="508.5" y1="140.7" x2="508.5" y2="161.4"/>
	</g>
	<g transform="matrix(0.620079,0,0,0.620079,0,0)">
		<text transform="matrix(1.6127 0 0 1.6127 508.0219 139.4055)" class="st3 st4"></text>
	</g>
	<g transform="matrix(0.620079,0,0,0.620079,0,0)">
		<line vector-effect="none" class="st0" x1="495.5" y1="122.2" x2="495.5" y2="95.5"/>
	</g>
	<g transform="matrix(0.620079,0,0,0.620079,0,0)">
		<text transform="matrix(1.6127 0 0 1.6127 485.0221 123.4683)" class="st3 st4"></text>
	</g>
	<g transform="matrix(0.620079,0,0,0.620079,0,0)">
		<text transform="matrix(1.6127 0 0 1.6127 501.2719 119.4681)" class="st6 st4"></text>
	</g>
	<g transform="matrix(0.620079,0,0,0.620079,0,0)">
		<text transform="matrix(1.6127 0 0 1.6127 495.0211 103.4671)" class="st3 st4"></text>
	</g>
	<g transform="matrix(0.620079,0,0,0.620079,0,0)">
		<line vector-effect="none" class="st0" x1="539.8" y1="122.2" x2="539.8" y2="95.5"/>
	</g>
	<g transform="matrix(0.620079,0,0,0.620079,0,0)">
		<text transform="matrix(1.6127 0 0 1.6127 529.2736 123.4683)" class="st3 st4"></text>
	</g>
	<g transform="matrix(0.620079,0,0,0.620079,0,0)">
		<line vector-effect="none" class="st0" x1="566" y1="122.2" x2="566" y2="95.5"/>
	</g>
	<g transform="matrix(0.620079,0,0,0.620079,0,0)">
		<text transform="matrix(1.6127 0 0 1.6127 555.524 123.4683)" class="st3 st4"></text>
	</g>
	<g transform="matrix(0.620079,0,0,0.620079,0,0)">
		<text transform="matrix(1.6127 0 0 1.6127 571.7739 119.4681)" class="st6 st4"></text>
	</g>
	<g transform="matrix(0.620079,0,0,0.620079,0,0)">
		<text transform="matrix(1.6127 0 0 1.6127 565.5247 103.4671)" class="st3 st4"></text>
	</g>
	<g transform="matrix(0.620079,0,0,0.620079,0,0)">
		<line vector-effect="none" class="st0" x1="611" y1="122.2" x2="611" y2="95.5"/>
	</g>
	<g transform="matrix(0.620079,0,0,0.620079,0,0)">
		<text transform="matrix(1.6127 0 0 1.6127 600.5253 123.4683)" class="st3 st4"></text>
	</g>
	<g transform="matrix(0.620079,0,0,0.620079,0,0)">
		<line vector-effect="none" class="st0" x1="579" y1="140.7" x2="579" y2="161.4"/>
	</g>
	<g transform="matrix(0.620079,0,0,0.620079,0,0)">
		<text transform="matrix(1.6127 0 0 1.6127 578.5239 139.4055)" class="st3 st4"></text>
	</g>
	<g transform="matrix(0.620079,0,0,0.620079,0,0)">
		<text transform="matrix(1.6127 0 0 1.6127 594.7753 139.4055)" class="st6 st4"></text>
	</g>
	<g transform="matrix(0.620079,0,0,0.620079,0,0)">
		<text transform="matrix(1.6127 0 0 1.6127 578.5239 153.4064)" class="st3 st4"></text>
	</g>
	<g transform="matrix(0.620079,0,0,0.620079,0,0)">
		<line vector-effect="none" class="st0" x1="616.3" y1="140.7" x2="616.3" y2="161.4"/>
	</g>
	<g transform="matrix(0.620079,0,0,0.620079,0,0)">
		<text transform="matrix(1.6127 0 0 1.6127 615.7766 139.4055)" class="st3 st4"></text>
	</g>
	<g transform="matrix(0.620079,0,0,0.620079,0,0)">
		<line vector-effect="none" class="st0" x1="645.3" y1="122.2" x2="645.3" y2="95.5"/>
	</g>
	<g transform="matrix(0.620079,0,0,0.620079,0,0)">
		<text transform="matrix(1.6127 0 0 1.6127 634.7762 123.4683)" class="st3 st4"></text>
	</g>
	<g transform="matrix(0.620079,0,0,0.620079,0,0)">
		<text transform="matrix(1.6127 0 0 1.6127 651.0291 119.4681)" class="st6 st4"></text>
	</g>
	<g transform="matrix(0.620079,0,0,0.620079,0,0)">
		<text transform="matrix(1.6127 0 0 1.6127 644.7768 103.4671)" class="st3 st4"></text>
	</g>
	<g transform="matrix(0.620079,0,0,0.620079,0,0)">
		<line vector-effect="none" class="st0" x1="668.8" y1="122.2" x2="668.8" y2="95.5"/>
	</g>
	<g transform="matrix(0.620079,0,0,0.620079,0,0)">
		<text transform="matrix(1.6127 0 0 1.6127 658.2784 123.4683)" class="st3 st4"></text>
	</g>
	<g transform="matrix(0.620079,0,0,0.620079,0,0)">
		<line vector-effect="none" class="st0" x1="706.5" y1="122.2" x2="706.5" y2="95.5"/>
	</g>
	<g transform="matrix(0.620079,0,0,0.620079,0,0)">
		<text transform="matrix(1.6127 0 0 1.6127 696.0303 123.4683)" class="st3 st4"></text>
	</g>
	<g transform="matrix(0.620079,0,0,0.620079,0,0)">
		<text transform="matrix(1.6127 0 0 1.6127 712.2802 119.4681)" class="st6 st4"></text>
	</g>
	<g transform="matrix(0.620079,0,0,0.620079,0,0)">
		<text transform="matrix(1.6127 0 0 1.6127 706.0309 103.4671)" class="st3 st4"></text>
	</g>
	<g transform="matrix(0.620079,0,0,0.620079,0,0)">
		<line vector-effect="none" class="st0" x1="677.5" y1="140.7" x2="677.5" y2="161.4"/>
	</g>
	<g transform="matrix(0.620079,0,0,0.620079,0,0)">
		<text transform="matrix(1.6127 0 0 1.6127 677.0292 139.4055)" class="st3 st4"></text>
	</g>
	<g transform="matrix(0.620079,0,0,0.620079,0,0)">
		<text transform="matrix(1.6127 0 0 1.6127 693.2806 139.4055)" class="st6 st4"></text>
	</g>
	<g transform="matrix(0.620079,0,0,0.620079,0,0)">
		<text transform="matrix(1.6127 0 0 1.6127 677.0292 153.4064)" class="st3 st4"></text>
	</g>
	<g transform="matrix(0.620079,0,0,0.620079,0,0)">
		<line vector-effect="none" class="st0" x1="715.5" y1="79.8" x2="715.5" y2="90"/>
	</g>
	<g transform="matrix(0.620079,0,0,0.620079,0,0)">
		<line vector-effect="none" class="st8" x1="715.5" y1="80" x2="570.2" y2="80"/>
	</g>
</g>
</svg>
