<?xml version="1.0" encoding="UTF-8"?>
<svg id="Calque_1" data-name="Calque 1" xmlns="http://www.w3.org/2000/svg" viewBox="0 0 377.35 240.94">
  <defs>
    <style>
      .cls-1 {
        font-family: OpusTextStd, 'Opus Text Std';
        font-size: 10.08px;
      }

      .cls-1, .cls-2, .cls-3 {
        isolation: isolate;
      }

      .cls-2 {
        font-family: OpusStd, 'Opus Std';
      }

      .cls-2, .cls-3 {
        font-size: 19.84px;
      }

      .cls-4 {
        stroke-width: .64px;
      }

      .cls-4, .cls-5, .cls-6 {
        fill: none;
        stroke: #000;
        stroke-linejoin: bevel;
      }

      .cls-5 {
        stroke-width: .63px;
      }

      .cls-6 {
        stroke-width: .62px;
      }

      .cls-3 {
        font-family: OpusSpecialStd, 'Opus Special Std';
      }

      .cls-7 {
        fill-rule: evenodd;
      }
    </style>
  </defs>
  <g>
    <line class="cls-6" x1="12.26" y1="174.74" x2="12.26" y2="179.86" vector-effect="none"/>
    <line class="cls-6" x1="55.51" y1="174.74" x2="55.51" y2="179.86" vector-effect="none"/>
    <line class="cls-6" x1="12.26" y1="174.9" x2="29.31" y2="174.9" vector-effect="none"/>
    <line class="cls-6" x1="38.46" y1="174.9" x2="55.51" y2="174.9" vector-effect="none"/>
    <text class="cls-1" transform="translate(30.31 178.6)"><tspan x="0" y="0">3</tspan></text>
    <line class="cls-6" x1="18.62" y1="197.69" x2="18.62" y2="181.1" vector-effect="none"/>
    <text class="cls-2" transform="translate(12.1 198.46)"><tspan x="0" y="0">’āÅ</tspan></text>
    <line class="cls-6" x1="35.82" y1="197.69" x2="35.82" y2="181.1" vector-effect="none"/>
    <text class="cls-2" transform="translate(29.31 198.46)"><tspan x="0" y="0">’āÅ</tspan></text>
    <line class="cls-6" x1="52.88" y1="197.69" x2="52.88" y2="181.1" vector-effect="none"/>
    <text class="cls-2" transform="translate(46.36 198.46)"><tspan x="0" y="0">’āÅ</tspan></text>
  </g>
  <g>
    <path class="cls-7" d="m6.51,28.82h54.1v-2.48H6.51v2.48" vector-effect="none"/>
    <text class="cls-1" transform="translate(31.02 24)"><tspan x="0" y="0">5</tspan></text>
    <line class="cls-6" x1="6.51" y1="41.69" x2="6.51" y2="26.49" vector-effect="none"/>
    <text class="cls-2" transform="translate(0 42.46)"><tspan x="0" y="0">’āÅ</tspan></text>
    <line class="cls-6" x1="20" y1="41.69" x2="20" y2="26.49" vector-effect="none"/>
    <text class="cls-2" transform="translate(13.49 42.46)"><tspan x="0" y="0">’āÅ</tspan></text>
    <line class="cls-6" x1="33.49" y1="41.69" x2="33.49" y2="26.49" vector-effect="none"/>
    <text class="cls-2" transform="translate(26.97 42.46)"><tspan x="0" y="0">’āÅ</tspan></text>
    <line class="cls-6" x1="47.13" y1="41.69" x2="47.13" y2="26.49" vector-effect="none"/>
    <text class="cls-2" transform="translate(40.62 42.46)"><tspan x="0" y="0">’āÅ</tspan></text>
    <line class="cls-6" x1="60.62" y1="41.69" x2="60.62" y2="26.49" vector-effect="none"/>
    <text class="cls-2" transform="translate(54.1 42.46)"><tspan x="0" y="0">’āÅ</tspan></text>
  </g>
  <g>
    <line class="cls-6" x1="279.27" y1="194.6" x2="279.27" y2="199.72" vector-effect="none"/>
    <line class="cls-6" x1="322.52" y1="194.6" x2="322.52" y2="199.72" vector-effect="none"/>
    <line class="cls-6" x1="279.27" y1="194.76" x2="291.82" y2="194.76" vector-effect="none"/>
    <line class="cls-6" x1="309.96" y1="194.76" x2="322.52" y2="194.76" vector-effect="none"/>
    <text class="cls-1" transform="translate(292.86 198.46)"><tspan x="0" y="0">3:2</tspan></text>
    <line class="cls-6" x1="285.62" y1="217.54" x2="285.62" y2="200.96" vector-effect="none"/>
    <text class="cls-2" transform="translate(279.11 218.32)"><tspan x="0" y="0">’āÅ</tspan></text>
    <line class="cls-6" x1="302.83" y1="217.54" x2="302.83" y2="200.96" vector-effect="none"/>
    <text class="cls-2" transform="translate(296.32 218.32)"><tspan x="0" y="0">’āÅ</tspan></text>
    <line class="cls-6" x1="319.88" y1="217.54" x2="319.88" y2="200.96" vector-effect="none"/>
    <text class="cls-2" transform="translate(313.37 218.32)"><tspan x="0" y="0">’āÅ</tspan></text>
  </g>
  <g>
    <path class="cls-7" d="m181.24,212.44h54.1v-2.48h-54.1v2.48" vector-effect="none"/>
    <text class="cls-1" transform="translate(201.24 207.62)"><tspan x="0" y="0">5:4</tspan></text>
    <line class="cls-6" x1="181.24" y1="225.3" x2="181.24" y2="210.11" vector-effect="none"/>
    <text class="cls-2" transform="translate(174.73 226.08)"><tspan x="0" y="0">’āÅ</tspan></text>
    <line class="cls-6" x1="194.73" y1="225.3" x2="194.73" y2="210.11" vector-effect="none"/>
    <text class="cls-2" transform="translate(188.21 226.08)"><tspan x="0" y="0">’āÅ</tspan></text>
    <line class="cls-6" x1="208.37" y1="225.3" x2="208.37" y2="210.11" vector-effect="none"/>
    <text class="cls-2" transform="translate(201.86 226.08)"><tspan x="0" y="0">’āÅ</tspan></text>
    <line class="cls-6" x1="221.86" y1="225.3" x2="221.86" y2="210.11" vector-effect="none"/>
    <text class="cls-2" transform="translate(215.34 226.08)"><tspan x="0" y="0">’āÅ</tspan></text>
    <line class="cls-6" x1="235.34" y1="225.3" x2="235.34" y2="210.11" vector-effect="none"/>
    <text class="cls-2" transform="translate(228.83 226.08)"><tspan x="0" y="0">’āÅ</tspan></text>
  </g>
  <g>
    <line class="cls-6" x1="172.09" y1="123.22" x2="172.09" y2="129.58" vector-effect="none"/>
    <line class="cls-6" x1="172.09" y1="123.38" x2="178.6" y2="123.38" vector-effect="none"/>
    <text class="cls-1" transform="translate(181.08 126.93)"><tspan x="0" y="0">5:3</tspan></text>
    <line class="cls-6" x1="204.34" y1="123.22" x2="204.34" y2="129.58" vector-effect="none"/>
    <line class="cls-6" x1="199.38" y1="123.38" x2="204.34" y2="123.38" vector-effect="none"/>
    <line class="cls-6" x1="178.91" y1="147.56" x2="178.91" y2="130.97" vector-effect="none"/>
    <text class="cls-2" transform="translate(172.4 148.34)"><tspan x="0" y="0">’āÅ</tspan></text>
    <line class="cls-6" x1="200.31" y1="147.56" x2="200.31" y2="130.97" vector-effect="none"/>
    <text class="cls-2" transform="translate(193.79 148.34)"><tspan x="0" y="0">’āÅ</tspan></text>
    <text class="cls-3" transform="translate(203.87 145.86)"><tspan x="0" y="0">’é¬</tspan></text>
    <text class="cls-2" transform="translate(200 135.93)"><tspan x="0" y="0">’ü¬</tspan></text>
  </g>
  <g>
    <text class="cls-1" transform="translate(269.18 10.08)"><tspan x="0" y="0">5:3</tspan></text>
    <line class="cls-6" x1="173.46" y1="6.9" x2="173.46" y2="13.25" vector-effect="none"/>
    <line class="cls-4" x1="173.46" y1="7.05" x2="265.57" y2="7.05" vector-effect="none"/>
    <line class="cls-6" x1="178.91" y1="33.23" x2="178.91" y2="16.64" vector-effect="none"/>
    <text class="cls-2" transform="translate(172.4 34.01)"><tspan x="0" y="0">’āÅ</tspan></text>
    <line class="cls-6" x1="172.71" y1="44.66" x2="172.71" y2="57.53" vector-effect="none"/>
    <text class="cls-2" transform="translate(172.4 43.89)"><tspan x="0" y="0">’āÅ</tspan></text>
    <line class="cls-6" x1="200.31" y1="33.23" x2="200.31" y2="16.64" vector-effect="none"/>
    <text class="cls-2" transform="translate(193.79 34.01)"><tspan x="0" y="0">’āÅ</tspan></text>
    <text class="cls-3" transform="translate(203.87 31.53)"><tspan x="0" y="0">’é¬</tspan></text>
    <line class="cls-6" x1="223.87" y1="33.23" x2="223.87" y2="16.64" vector-effect="none"/>
    <text class="cls-2" transform="translate(217.36 34.01)"><tspan x="0" y="0">’āÅ</tspan></text>
    <line class="cls-6" x1="205.89" y1="44.66" x2="205.89" y2="57.53" vector-effect="none"/>
    <text class="cls-2" transform="translate(205.58 43.89)"><tspan x="0" y="0">’āÅ</tspan></text>
    <text class="cls-3" transform="translate(215.65 43.89)"><tspan x="0" y="0">’é¬</tspan></text>
    <text class="cls-2" transform="translate(205.58 52.57)"><tspan x="0" y="0">’üŖ</tspan></text>
    <line class="cls-6" x1="248.36" y1="44.66" x2="248.36" y2="57.53" vector-effect="none"/>
    <text class="cls-2" transform="translate(248.05 43.89)"><tspan x="0" y="0">’āÅ</tspan></text>
    <line class="cls-6" x1="240.3" y1="33.23" x2="240.3" y2="16.64" vector-effect="none"/>
    <text class="cls-2" transform="translate(233.79 34.01)"><tspan x="0" y="0">’āÅ</tspan></text>
    <text class="cls-3" transform="translate(243.87 31.53)"><tspan x="0" y="0">’é¬</tspan></text>
    <text class="cls-2" transform="translate(239.99 21.6)"><tspan x="0" y="0">’ü¬</tspan></text>
    <line class="cls-6" x1="267.74" y1="33.23" x2="267.74" y2="16.64" vector-effect="none"/>
    <text class="cls-2" transform="translate(261.23 34.01)"><tspan x="0" y="0">’āÅ</tspan></text>
    <line class="cls-6" x1="284.02" y1="33.23" x2="284.02" y2="16.64" vector-effect="none"/>
    <text class="cls-2" transform="translate(277.51 34.01)"><tspan x="0" y="0">’āÅ</tspan></text>
    <text class="cls-3" transform="translate(287.59 31.53)"><tspan x="0" y="0">’é¬</tspan></text>
    <text class="cls-2" transform="translate(283.71 21.6)"><tspan x="0" y="0">’ü¬</tspan></text>
    <line class="cls-6" x1="311.93" y1="33.23" x2="311.93" y2="16.64" vector-effect="none"/>
    <text class="cls-2" transform="translate(305.41 34.01)"><tspan x="0" y="0">’āÅ</tspan></text>
    <line class="cls-6" x1="292.08" y1="44.66" x2="292.08" y2="57.53" vector-effect="none"/>
    <text class="cls-2" transform="translate(291.77 43.89)"><tspan x="0" y="0">’āÅ</tspan></text>
    <text class="cls-3" transform="translate(301.85 43.89)"><tspan x="0" y="0">’é¬</tspan></text>
    <text class="cls-2" transform="translate(291.77 52.57)"><tspan x="0" y="0">’üŖ</tspan></text>
    <line class="cls-6" x1="315.18" y1="44.66" x2="315.18" y2="57.53" vector-effect="none"/>
    <text class="cls-2" transform="translate(314.87 43.89)"><tspan x="0" y="0">’āÅ</tspan></text>
    <line class="cls-6" x1="333.16" y1="33.23" x2="333.16" y2="16.64" vector-effect="none"/>
    <text class="cls-2" transform="translate(326.65 34.01)"><tspan x="0" y="0">’āÅ</tspan></text>
    <text class="cls-3" transform="translate(336.73 31.53)"><tspan x="0" y="0">’é¬</tspan></text>
    <text class="cls-2" transform="translate(332.85 21.6)"><tspan x="0" y="0">’ü¬</tspan></text>
    <line class="cls-6" x1="347.74" y1="33.23" x2="347.74" y2="16.64" vector-effect="none"/>
    <text class="cls-2" transform="translate(341.23 34.01)"><tspan x="0" y="0">’āÅ</tspan></text>
    <line class="cls-6" x1="371.15" y1="33.23" x2="371.15" y2="16.64" vector-effect="none"/>
    <text class="cls-2" transform="translate(364.63 34.01)"><tspan x="0" y="0">’āÅ</tspan></text>
    <text class="cls-3" transform="translate(374.71 31.53)"><tspan x="0" y="0">’é¬</tspan></text>
    <text class="cls-2" transform="translate(370.84 21.6)"><tspan x="0" y="0">’ü¬</tspan></text>
    <line class="cls-6" x1="353.16" y1="44.66" x2="353.16" y2="57.53" vector-effect="none"/>
    <text class="cls-2" transform="translate(352.85 43.89)"><tspan x="0" y="0">’āÅ</tspan></text>
    <text class="cls-3" transform="translate(362.93 43.89)"><tspan x="0" y="0">’é¬</tspan></text>
    <text class="cls-2" transform="translate(352.85 52.57)"><tspan x="0" y="0">’üŖ</tspan></text>
    <line class="cls-6" x1="376.73" y1="6.9" x2="376.73" y2="13.25" vector-effect="none"/>
    <line class="cls-5" x1="376.73" y1="7.05" x2="286.64" y2="7.05" vector-effect="none"/>
  </g>
</svg>