<?xml version="1.0" encoding="UTF-8"?>
<svg id="Calque_1" data-name="Calque 1" xmlns="http://www.w3.org/2000/svg" viewBox="0 0 121.41 57.75">
  <defs>
    <style>
      .cls-1 {
        font-family: HelsinkiSpecialStd, 'Helsinki Special Std';
      }

      .cls-1, .cls-2 {
        font-size: 19.84px;
        isolation: isolate;
      }

      .cls-3 {
        fill: none;
        stroke: #000;
        stroke-linejoin: bevel;
        stroke-width: .62px;
      }

      .cls-2 {
        font-family: HelsinkiStd, 'Helsinki Std';
      }

      .cls-4 {
        fill-rule: evenodd;
      }
    </style>
  </defs>
  <path class="cls-4" d="m5.89,32.92h6.2v-2.48h-6.2v2.48" vector-effect="none"/>
  <path class="cls-4" d="m28.84,32.92h6.2v-2.48h-6.2v2.48" vector-effect="none"/>
  <path class="cls-4" d="m5.89,29.2h29.14v-2.48H5.89v2.48" vector-effect="none"/>
  <path class="cls-4" d="m65.62,32.92h12.56v-2.48h-12.56v2.48" vector-effect="none"/>
  <path class="cls-4" d="m49.03,29.2h29.14v-2.48h-29.14v2.48" vector-effect="none"/>
  <path class="cls-4" d="m90.89,32.92h12.56v-2.48h-12.56v2.48" vector-effect="none"/>
  <path class="cls-4" d="m90.89,29.2h25.27v-2.48h-25.27v2.48" vector-effect="none"/>
  <g>
    <path class="cls-4" d="m14.31,2.71h16.43V.22H14.31v2.48" vector-effect="none"/>
    <line class="cls-3" x1="14.31" y1="15.57" x2="14.31" y2=".38" vector-effect="none"/>
    <text class="cls-2" transform="translate(8.42 16.35)"><tspan x="0" y="0"></tspan></text>
    <line class="cls-3" x1="30.74" y1="15.57" x2="30.74" y2=".38" vector-effect="none"/>
    <text class="cls-2" transform="translate(24.85 16.35)"><tspan x="0" y="0"></tspan></text>
  </g>
  <g>
    <path class="cls-4" d="m68.77,6.2h6.2v-2.48h-6.2v2.48" vector-effect="none"/>
    <path class="cls-4" d="m55.44,2.48h19.53V0h-19.53v2.48" vector-effect="none"/>
    <line class="cls-3" x1="55.44" y1="15.35" x2="55.44" y2=".16" vector-effect="none"/>
    <text class="cls-2" transform="translate(49.55 16.12)"><tspan x="0" y="0"></tspan></text>
    <text class="cls-1" transform="translate(59 16.12)"><tspan x="0" y="0"></tspan></text>
    <line class="cls-3" x1="74.97" y1="15.35" x2="74.97" y2=".16" vector-effect="none"/>
    <text class="cls-2" transform="translate(69.08 16.12)"><tspan x="0" y="0"></tspan></text>
  </g>
  <g>
    <path class="cls-4" d="m97.53,6.2h6.2v-2.48h-6.2v2.48" vector-effect="none"/>
    <path class="cls-4" d="m97.53,2.48h17.67V0h-17.67v2.48" vector-effect="none"/>
    <line class="cls-3" x1="97.53" y1="15.35" x2="97.53" y2=".16" vector-effect="none"/>
    <text class="cls-2" transform="translate(91.64 16.12)"><tspan x="0" y="0"></tspan></text>
    <line class="cls-3" x1="115.2" y1="15.35" x2="115.2" y2=".16" vector-effect="none"/>
    <text class="cls-2" transform="translate(109.31 16.12)"><tspan x="0" y="0"></tspan></text>
    <text class="cls-1" transform="translate(118.77 16.12)"><tspan x="0" y="0"></tspan></text>
  </g>
  <line class="cls-3" x1="5.89" y1="42.07" x2="5.89" y2="26.88" vector-effect="none"/>
  <text class="cls-2" transform="translate(0 42.85)"><tspan x="0" y="0"></tspan></text>
  <line class="cls-3" x1="18.6" y1="42.07" x2="18.6" y2="26.88" vector-effect="none"/>
  <text class="cls-2" transform="translate(12.71 42.85)"><tspan x="0" y="0"></tspan></text>
  <line class="cls-3" x1="35.04" y1="42.07" x2="35.04" y2="26.88" vector-effect="none"/>
  <text class="cls-2" transform="translate(29.15 42.85)"><tspan x="0" y="0"></tspan></text>
  <line class="cls-3" x1="49.03" y1="42.07" x2="49.03" y2="26.88" vector-effect="none"/>
  <text class="cls-2" transform="translate(43.14 42.85)"><tspan x="0" y="0"></tspan></text>
  <line class="cls-3" x1="65.62" y1="42.07" x2="65.62" y2="26.88" vector-effect="none"/>
  <text class="cls-2" transform="translate(59.73 42.85)"><tspan x="0" y="0"></tspan></text>
  <line class="cls-3" x1="78.18" y1="42.07" x2="78.18" y2="26.88" vector-effect="none"/>
  <text class="cls-2" transform="translate(72.29 42.85)"><tspan x="0" y="0"></tspan></text>
  <line class="cls-3" x1="90.89" y1="42.07" x2="90.89" y2="26.88" vector-effect="none"/>
  <text class="cls-2" transform="translate(85 42.85)"><tspan x="0" y="0"></tspan></text>
  <line class="cls-3" x1="103.45" y1="42.07" x2="103.45" y2="26.88" vector-effect="none"/>
  <text class="cls-2" transform="translate(97.56 42.85)"><tspan x="0" y="0"></tspan></text>
  <line class="cls-3" x1="116.16" y1="42.07" x2="116.16" y2="26.88" vector-effect="none"/>
  <text class="cls-2" transform="translate(110.27 42.85)"><tspan x="0" y="0"></tspan></text>
</svg>