<?xml version="1.0" encoding="UTF-8"?>
<svg id="Calque_1" data-name="Calque 1" xmlns="http://www.w3.org/2000/svg" viewBox="0 0 535.53 23.03">
  <path d="m172.04,6.72c-4.47-4.31-9.53-4.94-15.11-2.99-5.67,1.97-10.08,5.87-14.81,9.33-4.68,3.42-9.27,7.06-14.84,9.03-1.46.51-2.93.94-4.54.84-3.71-.22-7.49.48-11.15-.44-3.2-.81-6.39-1.67-8.41-4.77-1.93-2.97-.89-7.67,2.2-9.42,1.72-.97,3.45-1.66,5.45-1.49.34.03.85.09.94-.38.08-.4-.33-.56-.64-.78-4.46-3.25-9.18-3.7-14.39-1.91-4.86,1.67-8.82,4.7-12.8,7.71-4.52,3.41-8.97,6.92-14.05,9.45-2.34,1.17-4.81,2.15-7.61,2.06-4.2-.13-8.36.07-12.45-1.48-4.95-1.88-7.38-6.51-4.77-11.17,1.14-2.05,3.45-3.24,5.99-3.43.89-.07,1.79-.01,3.19-.01-2.33-2.36-4.69-3.62-7.27-4.02-4.07-.63-7.94.33-11.65,2.19-5.58,2.8-10.07,7.14-15.18,10.58-3.5,2.36-6.92,4.78-10.93,6.32-2.62,1.01-5.22.93-7.87.98-.84.01-1.3-.46-1.34-1.23-.04-.79.45-1.27,1.25-1.34.56-.05,1.12-.06,1.68-.02,4.11.32,7.5-1.53,10.82-3.58,5.9-3.63,11.08-8.26,16.83-12.09C35.49,1.37,40.97-.69,47,.21c4.54.68,8.24,3.13,11.07,6.77.41.53.44,1.25.15,1.95-.34.83-1.05.51-1.61.52-1.68.04-3.36-.03-5.04.02-2.38.07-4.54,1.8-4.87,3.81-.31,1.89.82,4.48,3.26,5.4,6.18,2.31,12.5,2.66,18.62.02,3.25-1.4,6.14-3.61,9-5.77,3.69-2.79,7.35-5.63,11.18-8.23,4.97-3.37,10.48-5.38,16.55-4.46,4.71.71,8.47,3.34,11.29,7.2.69.95-.06,1.99-1.46,2.03-1.8.05-3.61-.05-5.41.01-3,.1-4.91,2.17-4.81,5.11.05,1.59,1.74,3.55,3.42,4.24,5.19,2.12,10.65,1.77,15.98,1.32,3.6-.31,6.81-2.47,9.77-4.6,4.21-3.01,8.32-6.16,12.48-9.23,3.63-2.68,7.55-4.93,11.98-5.83,6.55-1.33,12.36.26,16.95,5.39.29.32.52.71.86.95.69.49.74,1.13.52,1.82-.26.81-.97.84-1.69.83-1.74-.01-3.49-.09-5.23.01-2.04.12-3.74,1.04-4.65,2.9-.86,1.75-.2,3.48.96,4.82,1.19,1.37,3.03,1.76,4.7,2.34,2.02.7,4.12.89,6.24.77,1.05-.06,1.95.21,1.95,1.42,0,1.24-.98,1.14-1.89,1.19-4.01.25-7.78-.58-11.23-2.58-3.27-1.89-4.22-4.98-3.49-8.05.77-3.26,4.07-5.25,7.13-5.42.78-.04,1.57-.1,2.35-.15Z"/>
  <path d="m350.22,6.72c-4.47-4.31-9.53-4.94-15.11-2.99-5.67,1.97-10.08,5.87-14.81,9.33-4.68,3.42-9.27,7.06-14.84,9.03-1.46.51-2.93.94-4.54.84-3.71-.22-7.49.48-11.15-.44-3.2-.81-6.39-1.67-8.41-4.77-1.93-2.97-.89-7.67,2.2-9.42,1.72-.97,3.45-1.66,5.45-1.49.34.03.85.09.94-.38.08-.4-.33-.56-.64-.78-4.46-3.25-9.18-3.7-14.39-1.91-4.86,1.67-8.82,4.7-12.8,7.71-4.52,3.41-8.97,6.92-14.05,9.45-2.34,1.17-4.81,2.15-7.61,2.06-4.2-.13-8.36.07-12.45-1.48-4.95-1.88-7.38-6.51-4.77-11.17,1.14-2.05,3.45-3.24,5.99-3.43.89-.07,1.79-.01,3.19-.01-2.33-2.36-4.69-3.62-7.27-4.02-4.07-.63-7.94.33-11.65,2.19-5.58,2.8-10.07,7.14-15.18,10.58-3.5,2.36-6.92,4.78-10.93,6.32-2.62,1.01-5.22.93-7.87.98-.84.01-1.3-.46-1.34-1.23-.04-.79.45-1.27,1.25-1.34.56-.05,1.12-.06,1.68-.02,4.11.32,7.5-1.53,10.82-3.58,5.9-3.63,11.08-8.26,16.83-12.09,4.91-3.28,10.39-5.34,16.42-4.44,4.54.68,8.24,3.13,11.07,6.77.41.53.44,1.25.15,1.95-.34.83-1.05.51-1.61.52-1.68.04-3.36-.03-5.04.02-2.38.07-4.54,1.8-4.87,3.81-.31,1.89.82,4.48,3.26,5.4,6.18,2.31,12.5,2.66,18.62.02,3.25-1.4,6.14-3.61,9-5.77,3.69-2.79,7.35-5.63,11.18-8.23,4.97-3.37,10.48-5.38,16.55-4.46,4.71.71,8.47,3.34,11.29,7.2.69.95-.06,1.99-1.46,2.03-1.8.05-3.61-.05-5.41.01-3,.1-4.91,2.17-4.81,5.11.05,1.59,1.74,3.55,3.42,4.24,5.19,2.12,10.65,1.77,15.98,1.32,3.6-.31,6.81-2.47,9.77-4.6,4.21-3.01,8.32-6.16,12.48-9.23,3.63-2.68,7.55-4.93,11.98-5.83,6.55-1.33,12.36.26,16.95,5.39.29.32.52.71.86.95.69.49.74,1.13.52,1.82-.26.81-.97.84-1.69.83-1.74-.01-3.49-.09-5.23.01-2.04.12-3.74,1.04-4.65,2.9-.86,1.75-.2,3.48.96,4.82,1.19,1.37,3.03,1.76,4.7,2.34,2.02.7,4.12.89,6.24.77,1.05-.06,1.95.21,1.95,1.42,0,1.24-.98,1.14-1.89,1.19-4.01.25-7.78-.58-11.23-2.58-3.27-1.89-4.22-4.98-3.49-8.05.77-3.26,4.07-5.25,7.13-5.42.78-.04,1.57-.1,2.35-.15Z"/>
  <path d="m528.39,6.77c-4.47-4.31-9.53-4.94-15.11-2.99-5.67,1.97-10.08,5.87-14.81,9.33-4.68,3.42-9.27,7.06-14.84,9.03-1.46.51-2.93.94-4.54.84-3.71-.22-7.49.48-11.15-.44-3.2-.81-6.39-1.67-8.41-4.77-1.93-2.97-.89-7.67,2.2-9.42,1.72-.97,3.45-1.66,5.45-1.49.34.03.85.09.94-.38.08-.4-.33-.56-.64-.78-4.46-3.25-9.18-3.7-14.39-1.91-4.86,1.67-8.82,4.7-12.8,7.71-4.52,3.41-8.97,6.92-14.05,9.45-2.34,1.17-4.81,2.15-7.61,2.06-4.2-.13-8.36.07-12.45-1.48-4.95-1.88-7.38-6.51-4.77-11.17,1.14-2.05,3.45-3.24,5.99-3.43.89-.07,1.79-.01,3.19-.01-2.33-2.36-4.69-3.62-7.27-4.02-4.07-.63-7.94.33-11.65,2.19-5.58,2.8-10.07,7.14-15.18,10.58-3.5,2.36-6.92,4.78-10.93,6.32-2.62,1.01-5.22.93-7.87.98-.84.01-1.3-.46-1.34-1.23-.04-.79.45-1.27,1.25-1.34.56-.05,1.12-.06,1.68-.02,4.11.32,7.5-1.53,10.82-3.58,5.9-3.63,11.08-8.26,16.83-12.09,4.91-3.28,10.39-5.34,16.42-4.44,4.54.68,8.24,3.13,11.07,6.77.41.53.44,1.25.15,1.95-.34.83-1.05.51-1.61.52-1.68.04-3.36-.03-5.04.02-2.38.07-4.54,1.8-4.87,3.81-.31,1.89.82,4.48,3.26,5.4,6.18,2.31,12.5,2.66,18.62.02,3.25-1.4,6.14-3.61,9-5.77,3.69-2.79,7.35-5.63,11.18-8.23,4.97-3.37,10.48-5.38,16.55-4.46,4.71.71,8.47,3.34,11.29,7.2.69.95-.06,1.99-1.46,2.03-1.8.05-3.61-.05-5.41.01-3,.1-4.91,2.17-4.81,5.11.05,1.59,1.74,3.55,3.42,4.24,5.19,2.12,10.65,1.77,15.98,1.32,3.6-.31,6.81-2.47,9.77-4.6,4.21-3.01,8.32-6.16,12.48-9.23,3.63-2.68,7.55-4.93,11.98-5.83,6.55-1.33,12.36.26,16.95,5.39.29.32.52.71.86.95.69.49.74,1.13.52,1.82-.26.81-.97.84-1.69.83-1.74-.01-3.49-.09-5.23.01-2.04.12-3.74,1.04-4.65,2.9-.86,1.75-.2,3.48.96,4.82,1.19,1.37,3.03,1.76,4.7,2.34,2.02.7,4.12.89,6.24.77,1.05-.06,1.95.21,1.95,1.42,0,1.24-.98,1.14-1.89,1.19-4.01.25-7.78-.58-11.23-2.58-3.27-1.89-4.22-4.98-3.49-8.05.77-3.26,4.07-5.25,7.13-5.42.78-.04,1.57-.1,2.35-.15Z"/>
</svg>